solid 8_cutro_test
facet normal -0.0 0.0 -1.0
outer loop
vertex -14.1032517325383 -36.6394500259706 4.49999999999999
vertex -15.5871497789363 -36.6264768879974 4.49999999999999
vertex -15.0106082648948 -36.5619927610133 4.49999999999999
endloop
endfacet
facet normal -0.0 0.0 -1.0
outer loop
vertex -15.5871497789363 -36.6264768879974 4.49999999999999
vertex -14.1032517325383 -36.6394500259706 4.49999999999999
vertex -16.0896680939546 -36.8016142506348 4.49999999999999
endloop
endfacet
facet normal -0.0 0.0 -1.0
outer loop
vertex -16.0896680939546 -36.8016142506348 4.49999999999999
vertex -14.1032517325383 -36.6394500259706 4.49999999999999
vertex -13.3530991073856 -36.8962418452624 4.49999999999999
endloop
endfacet
facet normal -0.0 0.0 -1.0
outer loop
vertex -16.0896680939546 -36.8016142506348 4.49999999999999
vertex -13.3530991073856 -36.8962418452624 4.49999999999999
vertex -16.5181632099497 -37.0874048489254 4.49999999999999
endloop
endfacet
facet normal -0.0 0.0 -1.0
outer loop
vertex -16.5181632099497 -37.0874048489254 4.49999999999999
vertex -13.3530991073856 -36.8962418452624 4.49999999999999
vertex -12.7601503894369 -37.3323682188887 4.49999999999999
endloop
endfacet
facet normal -0.0 0.0 -1.0
outer loop
vertex -16.5181632099497 -37.0874048489254 4.49999999999999
vertex -12.7601503894369 -37.3323682188887 4.49999999999999
vertex -16.8726351269217 -37.4838486828692 4.49999999999999
endloop
endfacet
facet normal -0.0 0.0 -1.0
outer loop
vertex -16.8726351269217 -37.4838486828692 4.49999999999999
vertex -12.7601503894369 -37.3323682188887 4.49999999999999
vertex -12.3244055786921 -37.9478291468497 4.49999999999999
endloop
endfacet
facet normal -0.0 0.0 -1.0
outer loop
vertex -16.8726351269217 -37.4838486828692 4.49999999999999
vertex -12.3244055786921 -37.9478291468497 4.49999999999999
vertex -14.9556632099497 -37.7402589392795 4.49999999999999
endloop
endfacet
facet normal -0.0 0.0 -1.0
outer loop
vertex -14.9556632099497 -37.7402589392795 4.49999999999999
vertex -12.3244055786921 -37.9478291468497 4.49999999999999
vertex -14.1375923918789 -37.8440440430646 4.49999999999999
endloop
endfacet
facet normal -0.0 0.0 -1.0
outer loop
vertex -14.1375923918789 -37.8440440430646 4.49999999999999
vertex -12.3244055786921 -37.9478291468497 4.49999999999999
vertex -13.8063958106823 -37.9966691956897 4.49999999999999
endloop
endfacet
facet normal -0.0 0.0 -1.0
outer loop
vertex -9.89766565195219 -36.9134121749327 4.49999999999999
vertex -11.0228945896811 -36.9290562530768 4.49999999999999
vertex -10.4501687044552 -36.8611380601586 4.49999999999999
endloop
endfacet
facet normal -0.0 0.0 -1.0
outer loop
vertex -11.0228945896811 -36.9290562530768 4.49999999999999
vertex -9.89766565195219 -36.9134121749327 4.49999999999999
vertex -9.39400264828919 -37.070234519255 4.49999999999999
endloop
endfacet
facet normal -0.0 0.0 -1.0
outer loop
vertex -11.0228945896811 -36.9290562530768 4.49999999999999
vertex -9.39400264828919 -37.070234519255 4.49999999999999
vertex -11.5261760304626 -37.1328108318314 4.49999999999999
endloop
endfacet
facet normal -0.0 0.0 -1.0
outer loop
vertex -11.5261760304626 -37.1328108318314 4.49999999999999
vertex -9.39400264828919 -37.070234519255 4.49999999999999
vertex -8.93917969346623 -37.3316050931256 4.49999999999999
endloop
endfacet
facet normal -0.0 0.0 -1.0
outer loop
vertex -11.5261760304626 -37.1328108318314 4.49999999999999
vertex -8.93917969346623 -37.3316050931256 4.49999999999999
vertex -11.9600130267996 -37.4724017964223 4.49999999999999
endloop
endfacet
facet normal -0.0 0.0 -1.0
outer loop
vertex -11.9600130267996 -37.4724017964223 4.49999999999999
vertex -8.93917969346623 -37.3316050931256 4.49999999999999
vertex -8.53319678748333 -37.6975238965444 4.49999999999999
endloop
endfacet
facet normal -0.0 0.0 -1.0
outer loop
vertex -11.9600130267996 -37.4724017964223 4.49999999999999
vertex -8.53319678748333 -37.6975238965444 4.49999999999999
vertex -12.3244055786921 -37.9478291468497 4.49999999999999
endloop
endfacet
facet normal -0.0 0.0 -1.0
outer loop
vertex -12.3244055786921 -37.9478291468497 4.49999999999999
vertex -8.53319678748333 -37.6975238965444 4.49999999999999
vertex -8.21192084120738 -38.1187693177898 4.49999999999999
endloop
endfacet
facet normal -0.0 0.0 -1.0
outer loop
vertex -12.3244055786921 -37.9478291468497 4.49999999999999
vertex -8.21192084120738 -38.1187693177898 4.49999999999999
vertex -10.4501687044552 -38.0516142506348 4.49999999999999
endloop
endfacet
facet normal -0.0 0.0 -1.0
outer loop
vertex -12.3244055786921 -37.9478291468497 4.49999999999999
vertex -10.4501687044552 -38.0516142506348 4.49999999999999
vertex -13.8063958106823 -37.9966691956897 4.49999999999999
endloop
endfacet
facet normal -0.0 0.0 -1.0
outer loop
vertex -10.4501687044552 -38.0516142506348 4.49999999999999
vertex -8.21192084120738 -38.1187693177898 4.49999999999999
vertex -9.81524806953461 -38.1401368391574 4.49999999999999
endloop
endfacet
facet normal -0.0 0.0 -1.0
outer loop
vertex -9.81524806953461 -38.1401368391574 4.49999999999999
vertex -8.21192084120738 -38.1187693177898 4.49999999999999
vertex -7.98069373498027 -38.5827497817703 4.49999999999999
endloop
endfacet
facet normal -0.0 0.0 -1.0
outer loop
vertex -9.81524806953461 -38.1401368391574 4.49999999999999
vertex -7.98069373498027 -38.5827497817703 4.49999999999999
vertex -9.32684758113412 -38.4179146169351 4.49999999999999
endloop
endfacet
facet normal -0.0 0.0 -1.0
outer loop
vertex -9.32684758113412 -38.4179146169351 4.49999999999999
vertex -7.98069373498027 -38.5827497817703 4.49999999999999
vertex -8.99259849688503 -38.9261563751769 4.49999999999999
endloop
endfacet
facet normal -0.0 0.0 -1.0
outer loop
vertex -8.99259849688503 -38.9261563751769 4.49999999999999
vertex -7.98069373498027 -38.5827497817703 4.49999999999999
vertex -7.839515468802 -39.0894652884858 4.49999999999999
endloop
endfacet
facet normal -0.0 0.0 -1.0
outer loop
vertex -8.99259849688503 -38.9261563751769 4.49999999999999
vertex -7.839515468802 -39.0894652884858 4.49999999999999
vertex -8.88118213546867 -39.6206008196213 4.49999999999999
endloop
endfacet
facet normal -0.0 0.0 -1.0
outer loop
vertex -8.88118213546867 -39.6206008196213 4.49999999999999
vertex -7.839515468802 -39.0894652884858 4.49999999999999
vertex -7.78838604267258 -39.6389158379364 4.49999999999999
endloop
endfacet
facet normal -0.0 0.0 -1.0
outer loop
vertex -8.88118213546867 -39.6206008196213 4.49999999999999
vertex -7.78838604267258 -39.6389158379364 4.49999999999999
vertex -8.94986345414999 -40.2265226755432 4.49999999999999
endloop
endfacet
facet normal -0.0 0.0 -1.0
outer loop
vertex -8.94986345414999 -40.2265226755432 4.49999999999999
vertex -7.78838604267258 -39.6389158379364 4.49999999999999
vertex -7.82263131129285 -40.2398773763979 4.49999999999999
endloop
endfacet
facet normal -0.0 0.0 -1.0
outer loop
vertex -8.94986345414999 -40.2265226755432 4.49999999999999
vertex -7.82263131129285 -40.2398773763979 4.49999999999999
vertex -9.15590741019395 -40.6401368391574 4.49999999999999
endloop
endfacet
facet normal -0.0 0.0 -1.0
outer loop
vertex -9.15590741019395 -40.6401368391574 4.49999999999999
vertex -7.82263131129285 -40.2398773763979 4.49999999999999
vertex -7.93757712936366 -40.7607107097312 4.49999999999999
endloop
endfacet
facet normal -0.0 0.0 -1.0
outer loop
vertex -9.15590741019395 -40.6401368391574 4.49999999999999
vertex -7.93757712936366 -40.7607107097312 4.49999999999999
vertex -9.61530911959566 -40.9194408684614 4.49999999999999
endloop
endfacet
facet normal -0.0 0.0 -1.0
outer loop
vertex -9.61530911959566 -40.9194408684614 4.49999999999999
vertex -7.93757712936366 -40.7607107097312 4.49999999999999
vertex -8.13322349688503 -41.2014158379364 4.49999999999999
endloop
endfacet
facet normal -0.0 0.0 -1.0
outer loop
vertex -9.61530911959566 -40.9194408684614 4.49999999999999
vertex -8.13322349688503 -41.2014158379364 4.49999999999999
vertex -10.3219635762501 -41.0125422115627 4.49999999999999
endloop
endfacet
facet normal -0.0 0.0 -1.0
outer loop
vertex -10.3219635762501 -41.0125422115627 4.49999999999999
vertex -12.1290453833319 -40.9881221871427 4.49999999999999
vertex -10.8378365921231 -40.8858633348839 4.49999999999999
endloop
endfacet
facet normal -0.0 0.0 -1.0
outer loop
vertex -12.1290453833319 -40.9881221871427 4.49999999999999
vertex -10.3219635762501 -41.0125422115627 4.49999999999999
vertex -11.7856387899253 -41.560466509487 4.49999999999999
endloop
endfacet
facet normal -0.0 0.0 -1.0
outer loop
vertex -11.7856387899253 -41.560466509487 4.49999999999999
vertex -10.3219635762501 -41.0125422115627 4.49999999999999
vertex -8.13322349688503 -41.2014158379364 4.49999999999999
endloop
endfacet
facet normal -0.0 0.0 -1.0
outer loop
vertex -11.7856387899253 -41.560466509487 4.49999999999999
vertex -8.13322349688503 -41.2014158379364 4.49999999999999
vertex -8.40957041385695 -41.5619927610133 4.49999999999999
endloop
endfacet
facet normal -0.0 0.0 -1.0
outer loop
vertex -11.7856387899253 -41.560466509487 4.49999999999999
vertex -8.40957041385695 -41.5619927610133 4.49999999999999
vertex -11.4513897056762 -41.9099781089986 4.49999999999999
endloop
endfacet
facet normal -0.0 0.0 -1.0
outer loop
vertex -11.4513897056762 -41.9099781089986 4.49999999999999
vertex -8.40957041385695 -41.5619927610133 4.49999999999999
vertex -8.76661788027942 -41.842441478962 4.49999999999999
endloop
endfacet
facet normal -0.0 0.0 -1.0
outer loop
vertex -11.4513897056762 -41.9099781089986 4.49999999999999
vertex -8.76661788027942 -41.842441478962 4.49999999999999
vertex -9.20436589615243 -42.0427619917825 4.49999999999999
endloop
endfacet
facet normal -0.0 0.0 -1.0
outer loop
vertex -11.4513897056762 -41.9099781089986 4.49999999999999
vertex -9.20436589615243 -42.0427619917825 4.49999999999999
vertex -10.970620474907 -42.1297583287789 4.49999999999999
endloop
endfacet
facet normal -0.0 0.0 -1.0
outer loop
vertex -10.970620474907 -42.1297583287789 4.49999999999999
vertex -9.20436589615243 -42.0427619917825 4.49999999999999
vertex -9.722814461476 -42.1629542994748 4.49999999999999
endloop
endfacet
facet normal -0.0 0.0 -1.0
outer loop
vertex -10.970620474907 -42.1297583287789 4.49999999999999
vertex -9.722814461476 -42.1629542994748 4.49999999999999
vertex -10.3219635762501 -42.2030184020389 4.49999999999999
endloop
endfacet
facet normal -0.0 0.0 -1.0
outer loop
vertex -10.4501687044552 -38.0516142506348 4.49999999999999
vertex -13.5270917813783 -38.2164494154699 4.49999999999999
vertex -13.8063958106823 -37.9966691956897 4.49999999999999
endloop
endfacet
facet normal -0.0 0.0 -1.0
outer loop
vertex -13.5270917813783 -38.2164494154699 4.49999999999999
vertex -10.4501687044552 -38.0516142506348 4.49999999999999
vertex -10.8466125383991 -38.1416630906836 4.49999999999999
endloop
endfacet
facet normal -0.0 0.0 -1.0
outer loop
vertex -13.5270917813783 -38.2164494154699 4.49999999999999
vertex -10.8466125383991 -38.1416630906836 4.49999999999999
vertex -11.1812431855297 -38.4057046047251 4.49999999999999
endloop
endfacet
facet normal -0.0 0.0 -1.0
outer loop
vertex -13.5270917813783 -38.2164494154699 4.49999999999999
vertex -11.1812431855297 -38.4057046047251 4.49999999999999
vertex -13.166896421183 -38.7017974008179 4.49999999999999
endloop
endfacet
facet normal -0.0 0.0 -1.0
outer loop
vertex -13.166896421183 -38.7017974008179 4.49999999999999
vertex -11.1812431855297 -38.4057046047251 4.49999999999999
vertex -11.4540606458472 -38.8437387927593 4.49999999999999
endloop
endfacet
facet normal -0.0 0.0 -1.0
outer loop
vertex -13.166896421183 -38.7017974008179 4.49999999999999
vertex -11.4540606458472 -38.8437387927593 4.49999999999999
vertex -12.7456509999375 -39.5107107097312 4.49999999999999
endloop
endfacet
facet normal -0.0 0.0 -1.0
outer loop
vertex -12.7456509999375 -39.5107107097312 4.49999999999999
vertex -11.4540606458472 -38.8437387927593 4.49999999999999
vertex -11.6650649193515 -39.4557656547862 4.49999999999999
endloop
endfacet
facet normal -0.0 0.0 -1.0
outer loop
vertex -12.7456509999375 -39.5107107097312 4.49999999999999
vertex -11.6650649193515 -39.4557656547862 4.49999999999999
vertex -11.4513897056762 -40.0845812836018 4.49999999999999
endloop
endfacet
facet normal -0.0 0.0 -1.0
outer loop
vertex -12.7456509999375 -39.5107107097312 4.49999999999999
vertex -11.4513897056762 -40.0845812836018 4.49999999999999
vertex -13.0310600353466 -40.2601002091207 4.49999999999999
endloop
endfacet
facet normal -0.0 0.0 -1.0
outer loop
vertex -13.0310600353466 -40.2601002091207 4.49999999999999
vertex -11.4513897056762 -40.0845812836018 4.49999999999999
vertex -11.237714492001 -40.5058267048472 4.49999999999999
endloop
endfacet
facet normal -0.0 0.0 -1.0
outer loop
vertex -13.0310600353466 -40.2601002091207 4.49999999999999
vertex -11.237714492001 -40.5058267048472 4.49999999999999
vertex -13.3500466043331 -40.7866569856775 4.49999999999999
endloop
endfacet
facet normal -0.0 0.0 -1.0
outer loop
vertex -13.3500466043331 -40.7866569856775 4.49999999999999
vertex -11.237714492001 -40.5058267048472 4.49999999999999
vertex -10.8378365921231 -40.8858633348839 4.49999999999999
endloop
endfacet
facet normal -0.0 0.0 -1.0
outer loop
vertex -13.3500466043331 -40.7866569856775 4.49999999999999
vertex -10.8378365921231 -40.8858633348839 4.49999999999999
vertex -13.6137065554931 -41.0590928831134 4.49999999999999
endloop
endfacet
facet normal -0.0 0.0 -1.0
outer loop
vertex -13.6137065554931 -41.0590928831134 4.49999999999999
vertex -10.8378365921231 -40.8858633348839 4.49999999999999
vertex -12.1290453833319 -40.9881221871427 4.49999999999999
endloop
endfacet
facet normal -0.0 0.0 -1.0
outer loop
vertex -13.6137065554931 -41.0590928831134 4.49999999999999
vertex -12.1290453833319 -40.9881221871427 4.49999999999999
vertex -12.6052358595224 -41.7619317109522 4.49999999999999
endloop
endfacet
facet normal -0.0 0.0 -1.0
outer loop
vertex -13.6137065554931 -41.0590928831134 4.49999999999999
vertex -12.6052358595224 -41.7619317109522 4.49999999999999
vertex -13.9162859205725 -41.2536899527105 4.49999999999999
endloop
endfacet
facet normal -0.0 0.0 -1.0
outer loop
vertex -13.9162859205725 -41.2536899527105 4.49999999999999
vertex -12.6052358595224 -41.7619317109522 4.49999999999999
vertex -14.2577846995712 -41.3704481944687 4.49999999999999
endloop
endfacet
facet normal -0.0 0.0 -1.0
outer loop
vertex -14.2577846995712 -41.3704481944687 4.49999999999999
vertex -12.6052358595224 -41.7619317109522 4.49999999999999
vertex -14.6382028924894 -41.4093676083881 4.49999999999999
endloop
endfacet
facet normal -0.0 0.0 -1.0
outer loop
vertex -14.9556632099497 -37.7402589392795 4.49999999999999
vertex -17.1183616226482 -37.9115806731012 4.49999999999999
vertex -16.8726351269217 -37.4838486828692 4.49999999999999
endloop
endfacet
facet normal -0.0 0.0 -1.0
outer loop
vertex -17.1183616226482 -37.9115806731012 4.49999999999999
vertex -14.9556632099497 -37.7402589392795 4.49999999999999
vertex -15.3131876299742 -37.7932961798167 4.49999999999999
endloop
endfacet
facet normal -0.0 0.0 -1.0
outer loop
vertex -17.1183616226482 -37.9115806731012 4.49999999999999
vertex -15.3131876299742 -37.7932961798167 4.49999999999999
vertex -15.6226351269217 -37.9279878770084 4.49999999999999
endloop
endfacet
facet normal -0.0 0.0 -1.0
outer loop
vertex -17.1183616226482 -37.9115806731012 4.49999999999999
vertex -15.6226351269217 -37.9279878770084 4.49999999999999
vertex -17.2938805481671 -38.4011258501464 4.49999999999999
endloop
endfacet
facet normal -0.0 0.0 -1.0
outer loop
vertex -17.2938805481671 -38.4011258501464 4.49999999999999
vertex -15.6226351269217 -37.9279878770084 4.49999999999999
vertex -15.8840057007922 -38.1443340308546 4.49999999999999
endloop
endfacet
facet normal -0.0 0.0 -1.0
outer loop
vertex -17.2938805481671 -38.4011258501464 4.49999999999999
vertex -15.8840057007922 -38.1443340308546 4.49999999999999
vertex -16.0972993515859 -38.4423346413552 4.49999999999999
endloop
endfacet
facet normal -0.0 0.0 -1.0
outer loop
vertex -17.2938805481671 -38.4011258501464 4.49999999999999
vertex -16.0972993515859 -38.4423346413552 4.49999999999999
vertex -17.3991919034784 -38.9524842140047 4.49999999999999
endloop
endfacet
facet normal -0.0 0.0 -1.0
outer loop
vertex -17.3991919034784 -38.9524842140047 4.49999999999999
vertex -16.0972993515859 -38.4423346413552 4.49999999999999
vertex -16.2987645530511 -38.9704176694382 4.49999999999999
endloop
endfacet
facet normal -0.0 0.0 -1.0
outer loop
vertex -17.3991919034784 -38.9524842140047 4.49999999999999
vertex -16.2987645530511 -38.9704176694382 4.49999999999999
vertex -17.4342956885822 -39.5656557646763 4.49999999999999
endloop
endfacet
facet normal -0.0 0.0 -1.0
outer loop
vertex -17.4342956885822 -39.5656557646763 4.49999999999999
vertex -16.2987645530511 -38.9704176694382 4.49999999999999
vertex -16.3659196202062 -39.5656557646763 4.49999999999999
endloop
endfacet
facet normal -0.0 0.0 -1.0
outer loop
vertex -17.4342956885822 -39.5656557646763 4.49999999999999
vertex -16.3659196202062 -39.5656557646763 4.49999999999999
vertex -16.2392407435273 -40.4783541773747 4.49999999999999
endloop
endfacet
facet normal -0.0 0.0 -1.0
outer loop
vertex -17.4342956885822 -39.5656557646763 4.49999999999999
vertex -16.2392407435273 -40.4783541773747 4.49999999999999
vertex -17.3938500231366 -40.2093523458729 4.49999999999999
endloop
endfacet
facet normal -0.0 0.0 -1.0
outer loop
vertex -17.3938500231366 -40.2093523458729 4.49999999999999
vertex -16.2392407435273 -40.4783541773747 4.49999999999999
vertex -17.2725130267996 -40.7912357402563 4.49999999999999
endloop
endfacet
facet normal -0.0 0.0 -1.0
outer loop
vertex -17.2725130267996 -40.7912357402563 4.49999999999999
vertex -16.2392407435273 -40.4783541773747 4.49999999999999
vertex -16.0808921476787 -40.8133663873869 4.49999999999999
endloop
endfacet
facet normal -0.0 0.0 -1.0
outer loop
vertex -17.2725130267996 -40.7912357402563 4.49999999999999
vertex -16.0808921476787 -40.8133663873869 4.49999999999999
vertex -17.0702846995712 -41.3113059478265 4.49999999999999
endloop
endfacet
facet normal -0.0 0.0 -1.0
outer loop
vertex -17.0702846995712 -41.3113059478265 4.49999999999999
vertex -16.0808921476787 -40.8133663873869 4.49999999999999
vertex -15.8592041134907 -41.0674872665078 4.49999999999999
endloop
endfacet
facet normal -0.0 0.0 -1.0
outer loop
vertex -17.0702846995712 -41.3113059478265 4.49999999999999
vertex -15.8592041134907 -41.0674872665078 4.49999999999999
vertex -15.3524886067751 -41.3238975229181 4.49999999999999
endloop
endfacet
facet normal -0.0 0.0 -1.0
outer loop
vertex -17.0702846995712 -41.3113059478265 4.49999999999999
vertex -15.3524886067751 -41.3238975229181 4.49999999999999
vertex -16.7871650414516 -41.7695629685835 4.49999999999999
endloop
endfacet
facet normal -0.0 0.0 -1.0
outer loop
vertex -16.7871650414516 -41.7695629685835 4.49999999999999
vertex -15.3524886067751 -41.3238975229181 4.49999999999999
vertex -14.6382028924894 -41.4093676083881 4.49999999999999
endloop
endfacet
facet normal -0.0 0.0 -1.0
outer loop
vertex -16.7871650414516 -41.7695629685835 4.49999999999999
vertex -14.6382028924894 -41.4093676083881 4.49999999999999
vertex -12.6052358595224 -41.7619317109522 4.49999999999999
endloop
endfacet
facet normal -0.0 0.0 -1.0
outer loop
vertex -16.7871650414516 -41.7695629685835 4.49999999999999
vertex -12.6052358595224 -41.7619317109522 4.49999999999999
vertex -13.1180563723429 -42.264068463089 4.49999999999999
endloop
endfacet
facet normal -0.0 0.0 -1.0
outer loop
vertex -16.7871650414516 -41.7695629685835 4.49999999999999
vertex -13.1180563723429 -42.264068463089 4.49999999999999
vertex -16.3994971537837 -42.1728749343955 4.49999999999999
endloop
endfacet
facet normal -0.0 0.0 -1.0
outer loop
vertex -16.3994971537837 -42.1728749343955 4.49999999999999
vertex -13.1180563723429 -42.264068463089 4.49999999999999
vertex -15.9446741989607 -42.4609549099754 4.49999999999999
endloop
endfacet
facet normal -0.0 0.0 -1.0
outer loop
vertex -15.9446741989607 -42.4609549099754 4.49999999999999
vertex -13.1180563723429 -42.264068463089 4.49999999999999
vertex -13.8582883625749 -42.5845812836018 4.49999999999999
endloop
endfacet
facet normal -0.0 0.0 -1.0
outer loop
vertex -15.9446741989607 -42.4609549099754 4.49999999999999
vertex -13.8582883625749 -42.5845812836018 4.49999999999999
vertex -15.4226961769827 -42.6338028953234 4.49999999999999
endloop
endfacet
facet normal -0.0 0.0 -1.0
outer loop
vertex -15.4226961769827 -42.6338028953234 4.49999999999999
vertex -13.8582883625749 -42.5845812836018 4.49999999999999
vertex -14.8335630878496 -42.6914188904394 4.49999999999999
endloop
endfacet
facet normal 0.0 0.0 1.0
outer loop
vertex -15.5871497789363 -36.6264768879974 5.99999999999999
vertex -14.1032517325383 -36.6394500259706 5.99999999999999
vertex -15.0106082648948 -36.5619927610133 5.99999999999999
endloop
endfacet
facet normal 0.0 0.0 1.0
outer loop
vertex -14.1032517325383 -36.6394500259706 5.99999999999999
vertex -15.5871497789363 -36.6264768879974 5.99999999999999
vertex -16.0896680939546 -36.8016142506348 5.99999999999999
endloop
endfacet
facet normal 0.0 0.0 1.0
outer loop
vertex -14.1032517325383 -36.6394500259706 5.99999999999999
vertex -16.0896680939546 -36.8016142506348 5.99999999999999
vertex -13.3530991073856 -36.8962418452624 5.99999999999999
endloop
endfacet
facet normal 0.0 0.0 1.0
outer loop
vertex -13.3530991073856 -36.8962418452624 5.99999999999999
vertex -16.0896680939546 -36.8016142506348 5.99999999999999
vertex -16.5181632099497 -37.0874048489254 5.99999999999999
endloop
endfacet
facet normal 0.0 0.0 1.0
outer loop
vertex -13.3530991073856 -36.8962418452624 5.99999999999999
vertex -16.5181632099497 -37.0874048489254 5.99999999999999
vertex -12.7601503894369 -37.3323682188887 5.99999999999999
endloop
endfacet
facet normal 0.0 0.0 1.0
outer loop
vertex -12.7601503894369 -37.3323682188887 5.99999999999999
vertex -16.5181632099497 -37.0874048489254 5.99999999999999
vertex -16.8726351269217 -37.4838486828692 5.99999999999999
endloop
endfacet
facet normal 0.0 0.0 1.0
outer loop
vertex -12.7601503894369 -37.3323682188887 5.99999999999999
vertex -16.8726351269217 -37.4838486828692 5.99999999999999
vertex -12.3244055786921 -37.9478291468497 5.99999999999999
endloop
endfacet
facet normal 0.0 0.0 1.0
outer loop
vertex -12.3244055786921 -37.9478291468497 5.99999999999999
vertex -16.8726351269217 -37.4838486828692 5.99999999999999
vertex -14.9556632099497 -37.7402589392795 5.99999999999999
endloop
endfacet
facet normal 0.0 0.0 1.0
outer loop
vertex -12.3244055786921 -37.9478291468497 5.99999999999999
vertex -14.9556632099497 -37.7402589392795 5.99999999999999
vertex -14.1375923918789 -37.8440440430646 5.99999999999999
endloop
endfacet
facet normal 0.0 0.0 1.0
outer loop
vertex -12.3244055786921 -37.9478291468497 5.99999999999999
vertex -14.1375923918789 -37.8440440430646 5.99999999999999
vertex -13.8063958106823 -37.9966691956897 5.99999999999999
endloop
endfacet
facet normal 0.0 0.0 1.0
outer loop
vertex -17.1183616226482 -37.9115806731012 5.99999999999999
vertex -14.9556632099497 -37.7402589392795 5.99999999999999
vertex -16.8726351269217 -37.4838486828692 5.99999999999999
endloop
endfacet
facet normal 0.0 0.0 1.0
outer loop
vertex -14.9556632099497 -37.7402589392795 5.99999999999999
vertex -17.1183616226482 -37.9115806731012 5.99999999999999
vertex -15.3131876299742 -37.7932961798167 5.99999999999999
endloop
endfacet
facet normal 0.0 0.0 1.0
outer loop
vertex -15.3131876299742 -37.7932961798167 5.99999999999999
vertex -17.1183616226482 -37.9115806731012 5.99999999999999
vertex -15.6226351269217 -37.9279878770084 5.99999999999999
endloop
endfacet
facet normal 0.0 0.0 1.0
outer loop
vertex -15.6226351269217 -37.9279878770084 5.99999999999999
vertex -17.1183616226482 -37.9115806731012 5.99999999999999
vertex -17.2938805481671 -38.4011258501464 5.99999999999999
endloop
endfacet
facet normal 0.0 0.0 1.0
outer loop
vertex -15.6226351269217 -37.9279878770084 5.99999999999999
vertex -17.2938805481671 -38.4011258501464 5.99999999999999
vertex -15.8840057007922 -38.1443340308546 5.99999999999999
endloop
endfacet
facet normal 0.0 0.0 1.0
outer loop
vertex -15.8840057007922 -38.1443340308546 5.99999999999999
vertex -17.2938805481671 -38.4011258501464 5.99999999999999
vertex -16.0972993515859 -38.4423346413552 5.99999999999999
endloop
endfacet
facet normal 0.0 0.0 1.0
outer loop
vertex -16.0972993515859 -38.4423346413552 5.99999999999999
vertex -17.2938805481671 -38.4011258501464 5.99999999999999
vertex -17.3991919034784 -38.9524842140047 5.99999999999999
endloop
endfacet
facet normal 0.0 0.0 1.0
outer loop
vertex -16.0972993515859 -38.4423346413552 5.99999999999999
vertex -17.3991919034784 -38.9524842140047 5.99999999999999
vertex -16.2987645530511 -38.9704176694382 5.99999999999999
endloop
endfacet
facet normal 0.0 0.0 1.0
outer loop
vertex -16.2987645530511 -38.9704176694382 5.99999999999999
vertex -17.3991919034784 -38.9524842140047 5.99999999999999
vertex -17.4342956885822 -39.5656557646763 5.99999999999999
endloop
endfacet
facet normal 0.0 0.0 1.0
outer loop
vertex -16.2987645530511 -38.9704176694382 5.99999999999999
vertex -17.4342956885822 -39.5656557646763 5.99999999999999
vertex -16.3659196202062 -39.5656557646763 5.99999999999999
endloop
endfacet
facet normal 0.0 0.0 1.0
outer loop
vertex -16.3659196202062 -39.5656557646763 5.99999999999999
vertex -17.4342956885822 -39.5656557646763 5.99999999999999
vertex -17.3938500231366 -40.2093523458729 5.99999999999999
endloop
endfacet
facet normal 0.0 0.0 1.0
outer loop
vertex -16.3659196202062 -39.5656557646763 5.99999999999999
vertex -17.3938500231366 -40.2093523458729 5.99999999999999
vertex -16.2392407435273 -40.4783541773747 5.99999999999999
endloop
endfacet
facet normal 0.0 0.0 1.0
outer loop
vertex -16.2392407435273 -40.4783541773747 5.99999999999999
vertex -17.3938500231366 -40.2093523458729 5.99999999999999
vertex -17.2725130267996 -40.7912357402563 5.99999999999999
endloop
endfacet
facet normal 0.0 0.0 1.0
outer loop
vertex -16.2392407435273 -40.4783541773747 5.99999999999999
vertex -17.2725130267996 -40.7912357402563 5.99999999999999
vertex -16.0808921476787 -40.8133663873869 5.99999999999999
endloop
endfacet
facet normal 0.0 0.0 1.0
outer loop
vertex -16.0808921476787 -40.8133663873869 5.99999999999999
vertex -17.2725130267996 -40.7912357402563 5.99999999999999
vertex -17.0702846995712 -41.3113059478265 5.99999999999999
endloop
endfacet
facet normal 0.0 0.0 1.0
outer loop
vertex -16.0808921476787 -40.8133663873869 5.99999999999999
vertex -17.0702846995712 -41.3113059478265 5.99999999999999
vertex -15.8592041134907 -41.0674872665078 5.99999999999999
endloop
endfacet
facet normal 0.0 0.0 1.0
outer loop
vertex -15.8592041134907 -41.0674872665078 5.99999999999999
vertex -17.0702846995712 -41.3113059478265 5.99999999999999
vertex -15.3524886067751 -41.3238975229181 5.99999999999999
endloop
endfacet
facet normal 0.0 0.0 1.0
outer loop
vertex -15.3524886067751 -41.3238975229181 5.99999999999999
vertex -17.0702846995712 -41.3113059478265 5.99999999999999
vertex -16.7871650414516 -41.7695629685835 5.99999999999999
endloop
endfacet
facet normal 0.0 0.0 1.0
outer loop
vertex -15.3524886067751 -41.3238975229181 5.99999999999999
vertex -16.7871650414516 -41.7695629685835 5.99999999999999
vertex -14.6382028924894 -41.4093676083881 5.99999999999999
endloop
endfacet
facet normal 0.0 0.0 1.0
outer loop
vertex -14.6382028924894 -41.4093676083881 5.99999999999999
vertex -16.7871650414516 -41.7695629685835 5.99999999999999
vertex -12.6052358595224 -41.7619317109522 5.99999999999999
endloop
endfacet
facet normal 0.0 0.0 1.0
outer loop
vertex -12.6052358595224 -41.7619317109522 5.99999999999999
vertex -16.7871650414516 -41.7695629685835 5.99999999999999
vertex -13.1180563723429 -42.264068463089 5.99999999999999
endloop
endfacet
facet normal 0.0 0.0 1.0
outer loop
vertex -13.1180563723429 -42.264068463089 5.99999999999999
vertex -16.7871650414516 -41.7695629685835 5.99999999999999
vertex -16.3994971537837 -42.1728749343955 5.99999999999999
endloop
endfacet
facet normal 0.0 0.0 1.0
outer loop
vertex -13.1180563723429 -42.264068463089 5.99999999999999
vertex -16.3994971537837 -42.1728749343955 5.99999999999999
vertex -15.9446741989607 -42.4609549099754 5.99999999999999
endloop
endfacet
facet normal 0.0 0.0 1.0
outer loop
vertex -13.1180563723429 -42.264068463089 5.99999999999999
vertex -15.9446741989607 -42.4609549099754 5.99999999999999
vertex -13.8582883625749 -42.5845812836018 5.99999999999999
endloop
endfacet
facet normal 0.0 0.0 1.0
outer loop
vertex -13.8582883625749 -42.5845812836018 5.99999999999999
vertex -15.9446741989607 -42.4609549099754 5.99999999999999
vertex -15.4226961769827 -42.6338028953234 5.99999999999999
endloop
endfacet
facet normal 0.0 0.0 1.0
outer loop
vertex -13.8582883625749 -42.5845812836018 5.99999999999999
vertex -15.4226961769827 -42.6338028953234 5.99999999999999
vertex -14.8335630878496 -42.6914188904394 5.99999999999999
endloop
endfacet
facet normal 0.0 0.0 1.0
outer loop
vertex -13.5270917813783 -38.2164494154699 5.99999999999999
vertex -10.4501687044552 -38.0516142506348 5.99999999999999
vertex -13.8063958106823 -37.9966691956897 5.99999999999999
endloop
endfacet
facet normal 0.0 0.0 1.0
outer loop
vertex -10.4501687044552 -38.0516142506348 5.99999999999999
vertex -13.5270917813783 -38.2164494154699 5.99999999999999
vertex -10.8466125383991 -38.1416630906836 5.99999999999999
endloop
endfacet
facet normal 0.0 0.0 1.0
outer loop
vertex -10.8466125383991 -38.1416630906836 5.99999999999999
vertex -13.5270917813783 -38.2164494154699 5.99999999999999
vertex -11.1812431855297 -38.4057046047251 5.99999999999999
endloop
endfacet
facet normal 0.0 0.0 1.0
outer loop
vertex -11.1812431855297 -38.4057046047251 5.99999999999999
vertex -13.5270917813783 -38.2164494154699 5.99999999999999
vertex -13.166896421183 -38.7017974008179 5.99999999999999
endloop
endfacet
facet normal 0.0 0.0 1.0
outer loop
vertex -11.1812431855297 -38.4057046047251 5.99999999999999
vertex -13.166896421183 -38.7017974008179 5.99999999999999
vertex -11.4540606458472 -38.8437387927593 5.99999999999999
endloop
endfacet
facet normal 0.0 0.0 1.0
outer loop
vertex -11.4540606458472 -38.8437387927593 5.99999999999999
vertex -13.166896421183 -38.7017974008179 5.99999999999999
vertex -12.7456509999375 -39.5107107097312 5.99999999999999
endloop
endfacet
facet normal 0.0 0.0 1.0
outer loop
vertex -11.4540606458472 -38.8437387927593 5.99999999999999
vertex -12.7456509999375 -39.5107107097312 5.99999999999999
vertex -11.6650649193515 -39.4557656547862 5.99999999999999
endloop
endfacet
facet normal 0.0 0.0 1.0
outer loop
vertex -11.6650649193515 -39.4557656547862 5.99999999999999
vertex -12.7456509999375 -39.5107107097312 5.99999999999999
vertex -11.4513897056762 -40.0845812836018 5.99999999999999
endloop
endfacet
facet normal 0.0 0.0 1.0
outer loop
vertex -11.4513897056762 -40.0845812836018 5.99999999999999
vertex -12.7456509999375 -39.5107107097312 5.99999999999999
vertex -13.0310600353466 -40.2601002091207 5.99999999999999
endloop
endfacet
facet normal 0.0 0.0 1.0
outer loop
vertex -11.4513897056762 -40.0845812836018 5.99999999999999
vertex -13.0310600353466 -40.2601002091207 5.99999999999999
vertex -11.237714492001 -40.5058267048472 5.99999999999999
endloop
endfacet
facet normal 0.0 0.0 1.0
outer loop
vertex -11.237714492001 -40.5058267048472 5.99999999999999
vertex -13.0310600353466 -40.2601002091207 5.99999999999999
vertex -13.3500466043331 -40.7866569856775 5.99999999999999
endloop
endfacet
facet normal 0.0 0.0 1.0
outer loop
vertex -11.237714492001 -40.5058267048472 5.99999999999999
vertex -13.3500466043331 -40.7866569856775 5.99999999999999
vertex -10.8378365921231 -40.8858633348839 5.99999999999999
endloop
endfacet
facet normal 0.0 0.0 1.0
outer loop
vertex -10.8378365921231 -40.8858633348839 5.99999999999999
vertex -13.3500466043331 -40.7866569856775 5.99999999999999
vertex -13.6137065554931 -41.0590928831134 5.99999999999999
endloop
endfacet
facet normal 0.0 0.0 1.0
outer loop
vertex -10.8378365921231 -40.8858633348839 5.99999999999999
vertex -13.6137065554931 -41.0590928831134 5.99999999999999
vertex -12.1290453833319 -40.9881221871427 5.99999999999999
endloop
endfacet
facet normal 0.0 0.0 1.0
outer loop
vertex -12.1290453833319 -40.9881221871427 5.99999999999999
vertex -13.6137065554931 -41.0590928831134 5.99999999999999
vertex -12.6052358595224 -41.7619317109522 5.99999999999999
endloop
endfacet
facet normal 0.0 0.0 1.0
outer loop
vertex -12.6052358595224 -41.7619317109522 5.99999999999999
vertex -13.6137065554931 -41.0590928831134 5.99999999999999
vertex -13.9162859205725 -41.2536899527105 5.99999999999999
endloop
endfacet
facet normal 0.0 0.0 1.0
outer loop
vertex -12.6052358595224 -41.7619317109522 5.99999999999999
vertex -13.9162859205725 -41.2536899527105 5.99999999999999
vertex -14.2577846995712 -41.3704481944687 5.99999999999999
endloop
endfacet
facet normal 0.0 0.0 1.0
outer loop
vertex -12.6052358595224 -41.7619317109522 5.99999999999999
vertex -14.2577846995712 -41.3704481944687 5.99999999999999
vertex -14.6382028924894 -41.4093676083881 5.99999999999999
endloop
endfacet
facet normal 0.0 0.0 1.0
outer loop
vertex -12.1290453833319 -40.9881221871427 5.99999999999999
vertex -10.3219635762501 -41.0125422115627 5.99999999999999
vertex -10.8378365921231 -40.8858633348839 5.99999999999999
endloop
endfacet
facet normal 0.0 0.0 1.0
outer loop
vertex -10.3219635762501 -41.0125422115627 5.99999999999999
vertex -12.1290453833319 -40.9881221871427 5.99999999999999
vertex -11.7856387899253 -41.560466509487 5.99999999999999
endloop
endfacet
facet normal 0.0 0.0 1.0
outer loop
vertex -10.3219635762501 -41.0125422115627 5.99999999999999
vertex -11.7856387899253 -41.560466509487 5.99999999999999
vertex -8.13322349688503 -41.2014158379364 5.99999999999999
endloop
endfacet
facet normal 0.0 0.0 1.0
outer loop
vertex -8.13322349688503 -41.2014158379364 5.99999999999999
vertex -11.7856387899253 -41.560466509487 5.99999999999999
vertex -8.40957041385695 -41.5619927610133 5.99999999999999
endloop
endfacet
facet normal 0.0 0.0 1.0
outer loop
vertex -8.40957041385695 -41.5619927610133 5.99999999999999
vertex -11.7856387899253 -41.560466509487 5.99999999999999
vertex -11.4513897056762 -41.9099781089986 5.99999999999999
endloop
endfacet
facet normal 0.0 0.0 1.0
outer loop
vertex -8.40957041385695 -41.5619927610133 5.99999999999999
vertex -11.4513897056762 -41.9099781089986 5.99999999999999
vertex -8.76661788027942 -41.842441478962 5.99999999999999
endloop
endfacet
facet normal 0.0 0.0 1.0
outer loop
vertex -8.76661788027942 -41.842441478962 5.99999999999999
vertex -11.4513897056762 -41.9099781089986 5.99999999999999
vertex -9.20436589615243 -42.0427619917825 5.99999999999999
endloop
endfacet
facet normal 0.0 0.0 1.0
outer loop
vertex -9.20436589615243 -42.0427619917825 5.99999999999999
vertex -11.4513897056762 -41.9099781089986 5.99999999999999
vertex -10.970620474907 -42.1297583287789 5.99999999999999
endloop
endfacet
facet normal 0.0 0.0 1.0
outer loop
vertex -9.20436589615243 -42.0427619917825 5.99999999999999
vertex -10.970620474907 -42.1297583287789 5.99999999999999
vertex -9.722814461476 -42.1629542994748 5.99999999999999
endloop
endfacet
facet normal 0.0 0.0 1.0
outer loop
vertex -9.722814461476 -42.1629542994748 5.99999999999999
vertex -10.970620474907 -42.1297583287789 5.99999999999999
vertex -10.3219635762501 -42.2030184020389 5.99999999999999
endloop
endfacet
facet normal 0.0 0.0 1.0
outer loop
vertex -11.0228945896811 -36.9290562530768 5.99999999999999
vertex -9.89766565195219 -36.9134121749327 5.99999999999999
vertex -10.4501687044552 -36.8611380601586 5.99999999999999
endloop
endfacet
facet normal 0.0 0.0 1.0
outer loop
vertex -9.89766565195219 -36.9134121749327 5.99999999999999
vertex -11.0228945896811 -36.9290562530768 5.99999999999999
vertex -9.39400264828919 -37.070234519255 5.99999999999999
endloop
endfacet
facet normal 0.0 0.0 1.0
outer loop
vertex -9.39400264828919 -37.070234519255 5.99999999999999
vertex -11.0228945896811 -36.9290562530768 5.99999999999999
vertex -11.5261760304626 -37.1328108318314 5.99999999999999
endloop
endfacet
facet normal 0.0 0.0 1.0
outer loop
vertex -9.39400264828919 -37.070234519255 5.99999999999999
vertex -11.5261760304626 -37.1328108318314 5.99999999999999
vertex -8.93917969346623 -37.3316050931256 5.99999999999999
endloop
endfacet
facet normal 0.0 0.0 1.0
outer loop
vertex -8.93917969346623 -37.3316050931256 5.99999999999999
vertex -11.5261760304626 -37.1328108318314 5.99999999999999
vertex -11.9600130267996 -37.4724017964223 5.99999999999999
endloop
endfacet
facet normal 0.0 0.0 1.0
outer loop
vertex -8.93917969346623 -37.3316050931256 5.99999999999999
vertex -11.9600130267996 -37.4724017964223 5.99999999999999
vertex -8.53319678748333 -37.6975238965444 5.99999999999999
endloop
endfacet
facet normal 0.0 0.0 1.0
outer loop
vertex -8.53319678748333 -37.6975238965444 5.99999999999999
vertex -11.9600130267996 -37.4724017964223 5.99999999999999
vertex -12.3244055786921 -37.9478291468497 5.99999999999999
endloop
endfacet
facet normal 0.0 0.0 1.0
outer loop
vertex -8.53319678748333 -37.6975238965444 5.99999999999999
vertex -12.3244055786921 -37.9478291468497 5.99999999999999
vertex -8.21192084120738 -38.1187693177898 5.99999999999999
endloop
endfacet
facet normal 0.0 0.0 1.0
outer loop
vertex -8.21192084120738 -38.1187693177898 5.99999999999999
vertex -12.3244055786921 -37.9478291468497 5.99999999999999
vertex -10.4501687044552 -38.0516142506348 5.99999999999999
endloop
endfacet
facet normal 0.0 0.0 1.0
outer loop
vertex -10.4501687044552 -38.0516142506348 5.99999999999999
vertex -12.3244055786921 -37.9478291468497 5.99999999999999
vertex -13.8063958106823 -37.9966691956897 5.99999999999999
endloop
endfacet
facet normal 0.0 0.0 1.0
outer loop
vertex -8.21192084120738 -38.1187693177898 5.99999999999999
vertex -10.4501687044552 -38.0516142506348 5.99999999999999
vertex -9.81524806953461 -38.1401368391574 5.99999999999999
endloop
endfacet
facet normal 0.0 0.0 1.0
outer loop
vertex -8.21192084120738 -38.1187693177898 5.99999999999999
vertex -9.81524806953461 -38.1401368391574 5.99999999999999
vertex -7.98069373498027 -38.5827497817703 5.99999999999999
endloop
endfacet
facet normal 0.0 0.0 1.0
outer loop
vertex -7.98069373498027 -38.5827497817703 5.99999999999999
vertex -9.81524806953461 -38.1401368391574 5.99999999999999
vertex -9.32684758113412 -38.4179146169351 5.99999999999999
endloop
endfacet
facet normal 0.0 0.0 1.0
outer loop
vertex -7.98069373498027 -38.5827497817703 5.99999999999999
vertex -9.32684758113412 -38.4179146169351 5.99999999999999
vertex -8.99259849688503 -38.9261563751769 5.99999999999999
endloop
endfacet
facet normal 0.0 0.0 1.0
outer loop
vertex -7.98069373498027 -38.5827497817703 5.99999999999999
vertex -8.99259849688503 -38.9261563751769 5.99999999999999
vertex -7.839515468802 -39.0894652884858 5.99999999999999
endloop
endfacet
facet normal 0.0 0.0 1.0
outer loop
vertex -7.839515468802 -39.0894652884858 5.99999999999999
vertex -8.99259849688503 -38.9261563751769 5.99999999999999
vertex -8.88118213546867 -39.6206008196213 5.99999999999999
endloop
endfacet
facet normal 0.0 0.0 1.0
outer loop
vertex -7.839515468802 -39.0894652884858 5.99999999999999
vertex -8.88118213546867 -39.6206008196213 5.99999999999999
vertex -7.78838604267258 -39.6389158379364 5.99999999999999
endloop
endfacet
facet normal 0.0 0.0 1.0
outer loop
vertex -7.78838604267258 -39.6389158379364 5.99999999999999
vertex -8.88118213546867 -39.6206008196213 5.99999999999999
vertex -8.94986345414999 -40.2265226755432 5.99999999999999
endloop
endfacet
facet normal 0.0 0.0 1.0
outer loop
vertex -7.78838604267258 -39.6389158379364 5.99999999999999
vertex -8.94986345414999 -40.2265226755432 5.99999999999999
vertex -7.82263131129285 -40.2398773763979 5.99999999999999
endloop
endfacet
facet normal 0.0 0.0 1.0
outer loop
vertex -7.82263131129285 -40.2398773763979 5.99999999999999
vertex -8.94986345414999 -40.2265226755432 5.99999999999999
vertex -9.15590741019395 -40.6401368391574 5.99999999999999
endloop
endfacet
facet normal 0.0 0.0 1.0
outer loop
vertex -7.82263131129285 -40.2398773763979 5.99999999999999
vertex -9.15590741019395 -40.6401368391574 5.99999999999999
vertex -7.93757712936366 -40.7607107097312 5.99999999999999
endloop
endfacet
facet normal 0.0 0.0 1.0
outer loop
vertex -7.93757712936366 -40.7607107097312 5.99999999999999
vertex -9.15590741019395 -40.6401368391574 5.99999999999999
vertex -9.61530911959566 -40.9194408684614 5.99999999999999
endloop
endfacet
facet normal 0.0 0.0 1.0
outer loop
vertex -7.93757712936366 -40.7607107097312 5.99999999999999
vertex -9.61530911959566 -40.9194408684614 5.99999999999999
vertex -8.13322349688503 -41.2014158379364 5.99999999999999
endloop
endfacet
facet normal 0.0 0.0 1.0
outer loop
vertex -8.13322349688503 -41.2014158379364 5.99999999999999
vertex -9.61530911959566 -40.9194408684614 5.99999999999999
vertex -10.3219635762501 -41.0125422115627 5.99999999999999
endloop
endfacet
facet normal -0.998365262772757 0.0571559453485333 0.0
outer loop
vertex -17.4342956885822 -39.5656557646763 5.99999999999999
vertex -17.3991919034784 -38.9524842140047 4.49999999999999
vertex -17.4342956885822 -39.5656557646763 4.49999999999999
endloop
endfacet
facet normal -0.998365262772757 0.0571559453485333 0.0
outer loop
vertex -17.3991919034784 -38.9524842140047 4.49999999999999
vertex -17.4342956885822 -39.5656557646763 5.99999999999999
vertex -17.3991919034784 -38.9524842140047 5.99999999999999
endloop
endfacet
facet normal -0.982243244105827 0.187611858389763 0.0
outer loop
vertex -17.3991919034784 -38.9524842140047 5.99999999999999
vertex -17.2938805481671 -38.4011258501464 4.49999999999999
vertex -17.3991919034784 -38.9524842140047 4.49999999999999
endloop
endfacet
facet normal -0.982243244105827 0.187611858389763 0.0
outer loop
vertex -17.2938805481671 -38.4011258501464 4.49999999999999
vertex -17.3991919034784 -38.9524842140047 5.99999999999999
vertex -17.2938805481671 -38.4011258501464 5.99999999999999
endloop
endfacet
facet normal -0.941326210876488 0.337498095871539 0.0
outer loop
vertex -17.2938805481671 -38.4011258501464 5.99999999999999
vertex -17.1183616226482 -37.9115806731012 4.49999999999999
vertex -17.2938805481671 -38.4011258501464 4.49999999999999
endloop
endfacet
facet normal -0.941326210876488 0.337498095871539 0.0
outer loop
vertex -17.1183616226482 -37.9115806731012 4.49999999999999
vertex -17.2938805481671 -38.4011258501464 5.99999999999999
vertex -17.1183616226482 -37.9115806731012 5.99999999999999
endloop
endfacet
facet normal -0.86709843393495 0.498136834481808 0.0
outer loop
vertex -17.1183616226482 -37.9115806731012 5.99999999999999
vertex -16.8726351269217 -37.4838486828692 4.49999999999999
vertex -17.1183616226482 -37.9115806731012 4.49999999999999
endloop
endfacet
facet normal -0.86709843393495 0.498136834481808 0.0
outer loop
vertex -16.8726351269217 -37.4838486828692 4.49999999999999
vertex -17.1183616226482 -37.9115806731012 5.99999999999999
vertex -16.8726351269217 -37.4838486828692 5.99999999999999
endloop
endfacet
facet normal -0.745466450797245 0.666543149942867 0.0
outer loop
vertex -16.8726351269217 -37.4838486828692 5.99999999999999
vertex -16.5181632099497 -37.0874048489254 4.49999999999999
vertex -16.8726351269217 -37.4838486828692 4.49999999999999
endloop
endfacet
facet normal -0.745466450797245 0.666543149942867 0.0
outer loop
vertex -16.5181632099497 -37.0874048489254 4.49999999999999
vertex -16.8726351269217 -37.4838486828692 5.99999999999999
vertex -16.5181632099497 -37.0874048489254 5.99999999999999
endloop
endfacet
facet normal -0.554871142042146 0.831936305091228 0.0
outer loop
vertex -16.0896680939546 -36.8016142506348 5.99999999999999
vertex -16.5181632099497 -37.0874048489254 4.49999999999999
vertex -16.5181632099497 -37.0874048489254 5.99999999999999
endloop
endfacet
facet normal -0.554871142042146 0.831936305091228 0.0
outer loop
vertex -16.5181632099497 -37.0874048489254 4.49999999999999
vertex -16.0896680939546 -36.8016142506348 5.99999999999999
vertex -16.0896680939546 -36.8016142506348 4.49999999999999
endloop
endfacet
facet normal -0.329104563228997 0.944293485343329 0.0
outer loop
vertex -15.5871497789363 -36.6264768879974 5.99999999999999
vertex -16.0896680939546 -36.8016142506348 4.49999999999999
vertex -16.0896680939546 -36.8016142506348 5.99999999999999
endloop
endfacet
facet normal -0.329104563228997 0.944293485343329 0.0
outer loop
vertex -16.0896680939546 -36.8016142506348 4.49999999999999
vertex -15.5871497789363 -36.6264768879974 5.99999999999999
vertex -15.5871497789363 -36.6264768879974 4.49999999999999
endloop
endfacet
facet normal -0.11115337628411 0.993803263699935 0.0
outer loop
vertex -15.0106082648948 -36.5619927610133 5.99999999999999
vertex -15.5871497789363 -36.6264768879974 4.49999999999999
vertex -15.5871497789363 -36.6264768879974 5.99999999999999
endloop
endfacet
facet normal -0.11115337628411 0.993803263699935 0.0
outer loop
vertex -15.5871497789363 -36.6264768879974 4.49999999999999
vertex -15.0106082648948 -36.5619927610133 5.99999999999999
vertex -15.0106082648948 -36.5619927610133 4.49999999999999
endloop
endfacet
facet normal 0.206002194028177 0.978551529586244 0.0
outer loop
vertex -14.1032517325383 -36.6394500259706 5.99999999999999
vertex -15.0106082648948 -36.5619927610133 4.49999999999999
vertex -15.0106082648948 -36.5619927610133 5.99999999999999
endloop
endfacet
facet normal 0.0850564988837552 0.996376129781137 0.0
outer loop
vertex -15.0106082648948 -36.5619927610133 4.49999999999999
vertex -14.1032517325383 -36.6394500259706 5.99999999999999
vertex -14.1032517325383 -36.6394500259706 4.49999999999999
endloop
endfacet
facet normal 0.323869067407089 0.946101911623089 0.0
outer loop
vertex -13.3530991073856 -36.8962418452624 5.99999999999999
vertex -14.1032517325383 -36.6394500259706 4.49999999999999
vertex -14.1032517325383 -36.6394500259706 5.99999999999999
endloop
endfacet
facet normal 0.206002194028177 0.978551529586244 0.0
outer loop
vertex -14.1032517325383 -36.6394500259706 4.49999999999999
vertex -13.3530991073856 -36.8962418452624 5.99999999999999
vertex -13.3530991073856 -36.8962418452624 4.49999999999999
endloop
endfacet
facet normal 0.592509197184177 0.805563685410509 0.0
outer loop
vertex -12.7601503894369 -37.3323682188887 5.99999999999999
vertex -13.3530991073856 -36.8962418452624 4.49999999999999
vertex -13.3530991073856 -36.8962418452624 5.99999999999999
endloop
endfacet
facet normal 0.592509197184177 0.805563685410509 0.0
outer loop
vertex -13.3530991073856 -36.8962418452624 4.49999999999999
vertex -12.7601503894369 -37.3323682188887 5.99999999999999
vertex -12.7601503894369 -37.3323682188887 4.49999999999999
endloop
endfacet
facet normal 0.816153735462115 0.577834820767351 0.0
outer loop
vertex -12.7601503894369 -37.3323682188887 5.99999999999999
vertex -12.3244055786921 -37.9478291468497 4.49999999999999
vertex -12.7601503894369 -37.3323682188887 4.49999999999999
endloop
endfacet
facet normal 0.816153735462115 0.577834820767351 0.0
outer loop
vertex -12.3244055786921 -37.9478291468497 4.49999999999999
vertex -12.7601503894369 -37.3323682188887 5.99999999999999
vertex -12.3244055786921 -37.9478291468497 5.99999999999999
endloop
endfacet
facet normal -0.793688373666619 0.608324556060691 0.0
outer loop
vertex -12.3244055786921 -37.9478291468497 5.99999999999999
vertex -11.9600130267996 -37.4724017964223 4.49999999999999
vertex -12.3244055786921 -37.9478291468497 4.49999999999999
endloop
endfacet
facet normal -0.793688373666619 0.608324556060691 0.0
outer loop
vertex -11.9600130267996 -37.4724017964223 4.49999999999999
vertex -12.3244055786921 -37.9478291468497 5.99999999999999
vertex -11.9600130267996 -37.4724017964223 5.99999999999999
endloop
endfacet
facet normal -0.616382955240758 0.787446539448025 0.0
outer loop
vertex -11.5261760304626 -37.1328108318314 5.99999999999999
vertex -11.9600130267996 -37.4724017964223 4.49999999999999
vertex -11.9600130267996 -37.4724017964223 5.99999999999999
endloop
endfacet
facet normal -0.616382955240758 0.787446539448025 0.0
outer loop
vertex -11.9600130267996 -37.4724017964223 4.49999999999999
vertex -11.5261760304626 -37.1328108318314 5.99999999999999
vertex -11.5261760304626 -37.1328108318314 4.49999999999999
endloop
endfacet
facet normal -0.37526463969412 0.926917714899895 0.0
outer loop
vertex -11.0228945896811 -36.9290562530768 5.99999999999999
vertex -11.5261760304626 -37.1328108318314 4.49999999999999
vertex -11.5261760304626 -37.1328108318314 5.99999999999999
endloop
endfacet
facet normal -0.37526463969412 0.926917714899895 0.0
outer loop
vertex -11.5261760304626 -37.1328108318314 4.49999999999999
vertex -11.0228945896811 -36.9290562530768 5.99999999999999
vertex -11.0228945896811 -36.9290562530768 4.49999999999999
endloop
endfacet
facet normal -0.117762451279972 0.993041794220431 0.0
outer loop
vertex -10.4501687044552 -36.8611380601586 5.99999999999999
vertex -11.0228945896811 -36.9290562530768 4.49999999999999
vertex -11.0228945896811 -36.9290562530768 5.99999999999999
endloop
endfacet
facet normal -0.117762451279972 0.993041794220431 0.0
outer loop
vertex -11.0228945896811 -36.9290562530768 4.49999999999999
vertex -10.4501687044552 -36.8611380601586 5.99999999999999
vertex -10.4501687044552 -36.8611380601586 4.49999999999999
endloop
endfacet
facet normal 0.0941926084318025 0.995553992768254 0.0
outer loop
vertex -9.89766565195219 -36.9134121749327 5.99999999999999
vertex -10.4501687044552 -36.8611380601586 4.49999999999999
vertex -10.4501687044552 -36.8611380601586 5.99999999999999
endloop
endfacet
facet normal 0.0941926084318025 0.995553992768254 0.0
outer loop
vertex -10.4501687044552 -36.8611380601586 4.49999999999999
vertex -9.89766565195219 -36.9134121749327 5.99999999999999
vertex -9.89766565195219 -36.9134121749327 4.49999999999999
endloop
endfacet
facet normal 0.29728637549174 0.954788359243547 0.0
outer loop
vertex -9.39400264828919 -37.070234519255 5.99999999999999
vertex -9.89766565195219 -36.9134121749327 4.49999999999999
vertex -9.89766565195219 -36.9134121749327 5.99999999999999
endloop
endfacet
facet normal 0.29728637549174 0.954788359243547 0.0
outer loop
vertex -9.89766565195219 -36.9134121749327 4.49999999999999
vertex -9.39400264828919 -37.070234519255 5.99999999999999
vertex -9.39400264828919 -37.070234519255 4.49999999999999
endloop
endfacet
facet normal 0.498252451502831 0.867032003199086 0.0
outer loop
vertex -8.93917969346623 -37.3316050931256 5.99999999999999
vertex -9.39400264828919 -37.070234519255 4.49999999999999
vertex -9.39400264828919 -37.070234519255 5.99999999999999
endloop
endfacet
facet normal 0.498252451502831 0.867032003199086 0.0
outer loop
vertex -9.39400264828919 -37.070234519255 4.49999999999999
vertex -8.93917969346623 -37.3316050931256 5.99999999999999
vertex -8.93917969346623 -37.3316050931256 4.49999999999999
endloop
endfacet
facet normal 0.669504543431662 0.742807960595713 0.0
outer loop
vertex -8.53319678748333 -37.6975238965444 5.99999999999999
vertex -8.93917969346623 -37.3316050931256 4.49999999999999
vertex -8.93917969346623 -37.3316050931256 5.99999999999999
endloop
endfacet
facet normal 0.669504543431662 0.742807960595713 0.0
outer loop
vertex -8.93917969346623 -37.3316050931256 4.49999999999999
vertex -8.53319678748333 -37.6975238965444 5.99999999999999
vertex -8.53319678748333 -37.6975238965444 4.49999999999999
endloop
endfacet
facet normal 0.795134025468348 0.606433740438723 0.0
outer loop
vertex -8.53319678748333 -37.6975238965444 5.99999999999999
vertex -8.21192084120738 -38.1187693177898 4.49999999999999
vertex -8.53319678748333 -37.6975238965444 4.49999999999999
endloop
endfacet
facet normal 0.795134025468348 0.606433740438723 0.0
outer loop
vertex -8.21192084120738 -38.1187693177898 4.49999999999999
vertex -8.53319678748333 -37.6975238965444 5.99999999999999
vertex -8.21192084120738 -38.1187693177898 5.99999999999999
endloop
endfacet
facet normal 0.895015241536187 0.446035556226093 0.0
outer loop
vertex -8.21192084120738 -38.1187693177898 5.99999999999999
vertex -7.98069373498027 -38.5827497817703 4.49999999999999
vertex -8.21192084120738 -38.1187693177898 4.49999999999999
endloop
endfacet
facet normal 0.895015241536187 0.446035556226093 0.0
outer loop
vertex -7.98069373498027 -38.5827497817703 4.49999999999999
vertex -8.21192084120738 -38.1187693177898 5.99999999999999
vertex -7.98069373498027 -38.5827497817703 5.99999999999999
endloop
endfacet
facet normal 0.963309772714114 0.268392030048363 0.0
outer loop
vertex -7.98069373498027 -38.5827497817703 5.99999999999999
vertex -7.839515468802 -39.0894652884858 4.49999999999999
vertex -7.98069373498027 -38.5827497817703 4.49999999999999
endloop
endfacet
facet normal 0.963309772714114 0.268392030048363 0.0
outer loop
vertex -7.839515468802 -39.0894652884858 4.49999999999999
vertex -7.98069373498027 -38.5827497817703 5.99999999999999
vertex -7.839515468802 -39.0894652884858 5.99999999999999
endloop
endfacet
facet normal 0.995698249445691 0.0926552537678629 0.0
outer loop
vertex -7.839515468802 -39.0894652884858 5.99999999999999
vertex -7.78838604267258 -39.6389158379364 4.49999999999999
vertex -7.839515468802 -39.0894652884858 4.49999999999999
endloop
endfacet
facet normal 0.995698249445691 0.0926552537678629 0.0
outer loop
vertex -7.78838604267258 -39.6389158379364 4.49999999999999
vertex -7.839515468802 -39.0894652884858 5.99999999999999
vertex -7.78838604267258 -39.6389158379364 5.99999999999999
endloop
endfacet
facet normal 0.998380348059356 -0.0568918325322707 0.0
outer loop
vertex -7.78838604267258 -39.6389158379364 5.99999999999999
vertex -7.82263131129285 -40.2398773763979 4.49999999999999
vertex -7.78838604267258 -39.6389158379364 4.49999999999999
endloop
endfacet
facet normal 0.998380348059356 -0.0568918325322707 0.0
outer loop
vertex -7.82263131129285 -40.2398773763979 4.49999999999999
vertex -7.78838604267258 -39.6389158379364 5.99999999999999
vertex -7.82263131129285 -40.2398773763979 5.99999999999999
endloop
endfacet
facet normal 0.97650163841331 -0.215509976975828 0.0
outer loop
vertex -7.82263131129285 -40.2398773763979 5.99999999999999
vertex -7.93757712936366 -40.7607107097312 4.49999999999999
vertex -7.82263131129285 -40.2398773763979 4.49999999999999
endloop
endfacet
facet normal 0.97650163841331 -0.215509976975828 0.0
outer loop
vertex -7.93757712936366 -40.7607107097312 4.49999999999999
vertex -7.82263131129285 -40.2398773763979 5.99999999999999
vertex -7.93757712936366 -40.7607107097312 5.99999999999999
endloop
endfacet
facet normal 0.913982785556524 -0.405752963891006 0.0
outer loop
vertex -7.93757712936366 -40.7607107097312 5.99999999999999
vertex -8.13322349688503 -41.2014158379364 4.49999999999999
vertex -7.93757712936366 -40.7607107097312 4.49999999999999
endloop
endfacet
facet normal 0.913982785556524 -0.405752963891006 0.0
outer loop
vertex -8.13322349688503 -41.2014158379364 4.49999999999999
vertex -7.93757712936366 -40.7607107097312 5.99999999999999
vertex -8.13322349688503 -41.2014158379364 5.99999999999999
endloop
endfacet
facet normal 0.793707738068038 -0.608299290260081 0.0
outer loop
vertex -8.13322349688503 -41.2014158379364 5.99999999999999
vertex -8.40957041385695 -41.5619927610133 4.49999999999999
vertex -8.13322349688503 -41.2014158379364 4.49999999999999
endloop
endfacet
facet normal 0.793707738068038 -0.608299290260081 0.0
outer loop
vertex -8.40957041385695 -41.5619927610133 4.49999999999999
vertex -8.13322349688503 -41.2014158379364 5.99999999999999
vertex -8.40957041385695 -41.5619927610133 5.99999999999999
endloop
endfacet
facet normal 0.617700918074529 -0.786413107603049 0.0
outer loop
vertex -8.40957041385695 -41.5619927610133 4.49999999999999
vertex -8.76661788027942 -41.842441478962 5.99999999999999
vertex -8.76661788027942 -41.842441478962 4.49999999999999
endloop
endfacet
facet normal 0.617700918074529 -0.786413107603049 0.0
outer loop
vertex -8.76661788027942 -41.842441478962 5.99999999999999
vertex -8.40957041385695 -41.5619927610133 4.49999999999999
vertex -8.40957041385695 -41.5619927610133 5.99999999999999
endloop
endfacet
facet normal 0.416115622958402 -0.909311711312431 0.0
outer loop
vertex -8.76661788027942 -41.842441478962 4.49999999999999
vertex -9.20436589615243 -42.0427619917825 5.99999999999999
vertex -9.20436589615243 -42.0427619917825 4.49999999999999
endloop
endfacet
facet normal 0.416115622958402 -0.909311711312431 0.0
outer loop
vertex -9.20436589615243 -42.0427619917825 5.99999999999999
vertex -8.76661788027942 -41.842441478962 4.49999999999999
vertex -8.76661788027942 -41.842441478962 5.99999999999999
endloop
endfacet
facet normal 0.225841179384333 -0.974164134884001 0.0
outer loop
vertex -9.20436589615243 -42.0427619917825 4.49999999999999
vertex -9.722814461476 -42.1629542994748 5.99999999999999
vertex -9.722814461476 -42.1629542994748 4.49999999999999
endloop
endfacet
facet normal 0.225841179384333 -0.974164134884001 0.0
outer loop
vertex -9.722814461476 -42.1629542994748 5.99999999999999
vertex -9.20436589615243 -42.0427619917825 4.49999999999999
vertex -9.20436589615243 -42.0427619917825 5.99999999999999
endloop
endfacet
facet normal 0.0667193358869441 -0.997771782633085 0.0
outer loop
vertex -9.722814461476 -42.1629542994748 4.49999999999999
vertex -10.3219635762501 -42.2030184020389 5.99999999999999
vertex -10.3219635762501 -42.2030184020389 4.49999999999999
endloop
endfacet
facet normal 0.0667193358869441 -0.997771782633085 0.0
outer loop
vertex -10.3219635762501 -42.2030184020389 5.99999999999999
vertex -9.722814461476 -42.1629542994748 4.49999999999999
vertex -9.722814461476 -42.1629542994748 5.99999999999999
endloop
endfacet
facet normal -0.112227672784983 -0.993682519450386 0.0
outer loop
vertex -10.3219635762501 -42.2030184020389 4.49999999999999
vertex -10.970620474907 -42.1297583287789 5.99999999999999
vertex -10.970620474907 -42.1297583287789 4.49999999999999
endloop
endfacet
facet normal -0.112227672784983 -0.993682519450386 0.0
outer loop
vertex -10.970620474907 -42.1297583287789 5.99999999999999
vertex -10.3219635762501 -42.2030184020389 4.49999999999999
vertex -10.3219635762501 -42.2030184020389 5.99999999999999
endloop
endfacet
facet normal -0.415759760267794 -0.9094744755858 0.0
outer loop
vertex -10.970620474907 -42.1297583287789 4.49999999999999
vertex -11.4513897056762 -41.9099781089986 5.99999999999999
vertex -11.4513897056762 -41.9099781089986 4.49999999999999
endloop
endfacet
facet normal -0.415759760267794 -0.9094744755858 0.0
outer loop
vertex -11.4513897056762 -41.9099781089986 5.99999999999999
vertex -10.970620474907 -42.1297583287789 4.49999999999999
vertex -10.970620474907 -42.1297583287789 5.99999999999999
endloop
endfacet
facet normal -0.722710393272143 -0.691150987452398 0.0
outer loop
vertex -11.4513897056762 -41.9099781089986 5.99999999999999
vertex -11.7856387899253 -41.560466509487 4.49999999999999
vertex -11.4513897056762 -41.9099781089986 4.49999999999999
endloop
endfacet
facet normal -0.722710393272143 -0.691150987452398 0.0
outer loop
vertex -11.7856387899253 -41.560466509487 4.49999999999999
vertex -11.4513897056762 -41.9099781089986 5.99999999999999
vertex -11.7856387899253 -41.560466509487 5.99999999999999
endloop
endfacet
facet normal -0.857492925712544 -0.514495755427527 0.0
outer loop
vertex -11.7856387899253 -41.560466509487 5.99999999999999
vertex -12.1290453833319 -40.9881221871427 4.49999999999999
vertex -11.7856387899253 -41.560466509487 4.49999999999999
endloop
endfacet
facet normal -0.857492925712544 -0.514495755427527 0.0
outer loop
vertex -12.1290453833319 -40.9881221871427 4.49999999999999
vertex -11.7856387899253 -41.560466509487 5.99999999999999
vertex -12.1290453833319 -40.9881221871427 5.99999999999999
endloop
endfacet
facet normal 0.851658316704544 -0.524097425664334 0.0
outer loop
vertex -12.1290453833319 -40.9881221871427 5.99999999999999
vertex -12.6052358595224 -41.7619317109522 4.49999999999999
vertex -12.1290453833319 -40.9881221871427 4.49999999999999
endloop
endfacet
facet normal 0.851658316704544 -0.524097425664334 0.0
outer loop
vertex -12.6052358595224 -41.7619317109522 4.49999999999999
vertex -12.1290453833319 -40.9881221871427 5.99999999999999
vertex -12.6052358595224 -41.7619317109522 5.99999999999999
endloop
endfacet
facet normal 0.699624792608214 -0.714510426493494 0.0
outer loop
vertex -12.6052358595224 -41.7619317109522 4.49999999999999
vertex -13.1180563723429 -42.264068463089 5.99999999999999
vertex -13.1180563723429 -42.264068463089 4.49999999999999
endloop
endfacet
facet normal 0.699624792608214 -0.714510426493494 0.0
outer loop
vertex -13.1180563723429 -42.264068463089 5.99999999999999
vertex -12.6052358595224 -41.7619317109522 4.49999999999999
vertex -12.6052358595224 -41.7619317109522 5.99999999999999
endloop
endfacet
facet normal 0.397341924581315 -0.917670635342559 0.0
outer loop
vertex -13.1180563723429 -42.264068463089 4.49999999999999
vertex -13.8582883625749 -42.5845812836018 5.99999999999999
vertex -13.8582883625749 -42.5845812836018 4.49999999999999
endloop
endfacet
facet normal 0.255983327729241 -0.966681196633443 0.0
outer loop
vertex -13.8582883625749 -42.5845812836018 5.99999999999999
vertex -13.1180563723429 -42.264068463089 4.49999999999999
vertex -13.1180563723429 -42.264068463089 5.99999999999999
endloop
endfacet
facet normal 0.255983327729241 -0.966681196633443 0.0
outer loop
vertex -13.8582883625749 -42.5845812836018 4.49999999999999
vertex -14.8335630878496 -42.6914188904394 5.99999999999999
vertex -14.8335630878496 -42.6914188904394 4.49999999999999
endloop
endfacet
facet normal 0.108894726340435 -0.994053287593398 0.0
outer loop
vertex -14.8335630878496 -42.6914188904394 5.99999999999999
vertex -13.8582883625749 -42.5845812836018 4.49999999999999
vertex -13.8582883625749 -42.5845812836018 5.99999999999999
endloop
endfacet
facet normal -0.0973335649014424 -0.995251815945883 0.0
outer loop
vertex -14.8335630878496 -42.6914188904394 4.49999999999999
vertex -15.4226961769827 -42.6338028953234 5.99999999999999
vertex -15.4226961769827 -42.6338028953234 4.49999999999999
endloop
endfacet
facet normal -0.0973335649014424 -0.995251815945883 0.0
outer loop
vertex -15.4226961769827 -42.6338028953234 5.99999999999999
vertex -14.8335630878496 -42.6914188904394 4.49999999999999
vertex -14.8335630878496 -42.6914188904394 5.99999999999999
endloop
endfacet
facet normal -0.314353519040023 -0.949305991273179 0.0
outer loop
vertex -15.4226961769827 -42.6338028953234 4.49999999999999
vertex -15.9446741989607 -42.4609549099754 5.99999999999999
vertex -15.9446741989607 -42.4609549099754 4.49999999999999
endloop
endfacet
facet normal -0.314353519040023 -0.949305991273179 0.0
outer loop
vertex -15.9446741989607 -42.4609549099754 5.99999999999999
vertex -15.4226961769827 -42.6338028953234 4.49999999999999
vertex -15.4226961769827 -42.6338028953234 5.99999999999999
endloop
endfacet
facet normal -0.535085802705001 -0.844797717648163 0.0
outer loop
vertex -15.9446741989607 -42.4609549099754 4.49999999999999
vertex -16.3994971537837 -42.1728749343955 5.99999999999999
vertex -16.3994971537837 -42.1728749343955 4.49999999999999
endloop
endfacet
facet normal -0.535085802705001 -0.844797717648163 0.0
outer loop
vertex -16.3994971537837 -42.1728749343955 5.99999999999999
vertex -15.9446741989607 -42.4609549099754 4.49999999999999
vertex -15.9446741989607 -42.4609549099754 5.99999999999999
endloop
endfacet
facet normal -0.72095101479599 -0.6929860274671 0.0
outer loop
vertex -16.3994971537837 -42.1728749343955 5.99999999999999
vertex -16.7871650414516 -41.7695629685835 4.49999999999999
vertex -16.3994971537837 -42.1728749343955 4.49999999999999
endloop
endfacet
facet normal -0.72095101479599 -0.6929860274671 0.0
outer loop
vertex -16.7871650414516 -41.7695629685835 4.49999999999999
vertex -16.3994971537837 -42.1728749343955 5.99999999999999
vertex -16.7871650414516 -41.7695629685835 5.99999999999999
endloop
endfacet
facet normal -0.850732788560084 -0.525598442224465 0.0
outer loop
vertex -16.7871650414516 -41.7695629685835 5.99999999999999
vertex -17.0702846995712 -41.3113059478265 4.49999999999999
vertex -16.7871650414516 -41.7695629685835 4.49999999999999
endloop
endfacet
facet normal -0.850732788560084 -0.525598442224465 0.0
outer loop
vertex -17.0702846995712 -41.3113059478265 4.49999999999999
vertex -16.7871650414516 -41.7695629685835 5.99999999999999
vertex -17.0702846995712 -41.3113059478265 5.99999999999999
endloop
endfacet
facet normal -0.932017503638795 -0.362413262603494 0.0
outer loop
vertex -17.0702846995712 -41.3113059478265 5.99999999999999
vertex -17.2725130267996 -40.7912357402563 4.49999999999999
vertex -17.0702846995712 -41.3113059478265 4.49999999999999
endloop
endfacet
facet normal -0.932017503638795 -0.362413262603494 0.0
outer loop
vertex -17.2725130267996 -40.7912357402563 4.49999999999999
vertex -17.0702846995712 -41.3113059478265 5.99999999999999
vertex -17.2725130267996 -40.7912357402563 5.99999999999999
endloop
endfacet
facet normal -0.97894301969049 -0.204133691974804 0.0
outer loop
vertex -17.2725130267996 -40.7912357402563 5.99999999999999
vertex -17.3938500231366 -40.2093523458729 4.49999999999999
vertex -17.2725130267996 -40.7912357402563 4.49999999999999
endloop
endfacet
facet normal -0.97894301969049 -0.204133691974804 0.0
outer loop
vertex -17.3938500231366 -40.2093523458729 4.49999999999999
vertex -17.2725130267996 -40.7912357402563 5.99999999999999
vertex -17.3938500231366 -40.2093523458729 5.99999999999999
endloop
endfacet
facet normal -0.998031805872032 -0.0627097637358839 0.0
outer loop
vertex -17.3938500231366 -40.2093523458729 5.99999999999999
vertex -17.4342956885822 -39.5656557646763 4.49999999999999
vertex -17.3938500231366 -40.2093523458729 4.49999999999999
endloop
endfacet
facet normal -0.998031805872032 -0.0627097637358839 0.0
outer loop
vertex -17.4342956885822 -39.5656557646763 4.49999999999999
vertex -17.3938500231366 -40.2093523458729 5.99999999999999
vertex -17.4342956885822 -39.5656557646763 5.99999999999999
endloop
endfacet
facet normal -0.987372832964556 -0.158413663310797 0.0
outer loop
vertex -8.88118213546867 -39.6206008196213 5.99999999999999
vertex -8.99259849688503 -38.9261563751769 4.49999999999999
vertex -8.88118213546867 -39.6206008196213 4.49999999999999
endloop
endfacet
facet normal -0.987372832964556 -0.158413663310797 0.0
outer loop
vertex -8.99259849688503 -38.9261563751769 4.49999999999999
vertex -8.88118213546867 -39.6206008196213 5.99999999999999
vertex -8.99259849688503 -38.9261563751769 5.99999999999999
endloop
endfacet
facet normal -0.835508021739428 -0.549478248531338 0.0
outer loop
vertex -8.99259849688503 -38.9261563751769 5.99999999999999
vertex -9.32684758113412 -38.4179146169351 4.49999999999999
vertex -8.99259849688503 -38.9261563751769 4.49999999999999
endloop
endfacet
facet normal -0.835508021739428 -0.549478248531338 0.0
outer loop
vertex -9.32684758113412 -38.4179146169351 4.49999999999999
vertex -8.99259849688503 -38.9261563751769 5.99999999999999
vertex -9.32684758113412 -38.4179146169351 5.99999999999999
endloop
endfacet
facet normal -0.494382719648062 -0.869244342238352 0.0
outer loop
vertex -9.32684758113412 -38.4179146169351 4.49999999999999
vertex -9.81524806953461 -38.1401368391574 5.99999999999999
vertex -9.81524806953461 -38.1401368391574 4.49999999999999
endloop
endfacet
facet normal -0.494382719648062 -0.869244342238352 0.0
outer loop
vertex -9.81524806953461 -38.1401368391574 5.99999999999999
vertex -9.32684758113412 -38.4179146169351 4.49999999999999
vertex -9.32684758113412 -38.4179146169351 5.99999999999999
endloop
endfacet
facet normal -0.13808741023263 -0.990420045806447 0.0
outer loop
vertex -9.81524806953461 -38.1401368391574 4.49999999999999
vertex -10.4501687044552 -38.0516142506348 5.99999999999999
vertex -10.4501687044552 -38.0516142506348 4.49999999999999
endloop
endfacet
facet normal -0.13808741023263 -0.990420045806447 0.0
outer loop
vertex -10.4501687044552 -38.0516142506348 5.99999999999999
vertex -9.81524806953461 -38.1401368391574 4.49999999999999
vertex -9.81524806953461 -38.1401368391574 5.99999999999999
endloop
endfacet
facet normal 0.221499402946949 -0.975160507041864 0.0
outer loop
vertex -10.4501687044552 -38.0516142506348 4.49999999999999
vertex -10.8466125383991 -38.1416630906836 5.99999999999999
vertex -10.8466125383991 -38.1416630906836 4.49999999999999
endloop
endfacet
facet normal 0.221499402946949 -0.975160507041864 0.0
outer loop
vertex -10.8466125383991 -38.1416630906836 5.99999999999999
vertex -10.4501687044552 -38.0516142506348 4.49999999999999
vertex -10.4501687044552 -38.0516142506348 5.99999999999999
endloop
endfacet
facet normal 0.619441103261178 -0.785043132312215 0.0
outer loop
vertex -10.8466125383991 -38.1416630906836 4.49999999999999
vertex -11.1812431855297 -38.4057046047251 5.99999999999999
vertex -11.1812431855297 -38.4057046047251 4.49999999999999
endloop
endfacet
facet normal 0.619441103261178 -0.785043132312215 0.0
outer loop
vertex -11.1812431855297 -38.4057046047251 5.99999999999999
vertex -10.8466125383991 -38.1416630906836 4.49999999999999
vertex -10.8466125383991 -38.1416630906836 5.99999999999999
endloop
endfacet
facet normal 0.848828045618903 -0.52866903538111 0.0
outer loop
vertex -11.1812431855297 -38.4057046047251 5.99999999999999
vertex -11.4540606458472 -38.8437387927593 4.49999999999999
vertex -11.1812431855297 -38.4057046047251 4.49999999999999
endloop
endfacet
facet normal 0.848828045618903 -0.52866903538111 0.0
outer loop
vertex -11.4540606458472 -38.8437387927593 4.49999999999999
vertex -11.1812431855297 -38.4057046047251 5.99999999999999
vertex -11.4540606458472 -38.8437387927593 5.99999999999999
endloop
endfacet
facet normal 0.945391770588143 -0.325936190233942 0.0
outer loop
vertex -11.4540606458472 -38.8437387927593 5.99999999999999
vertex -11.6650649193515 -39.4557656547862 4.49999999999999
vertex -11.4540606458472 -38.8437387927593 4.49999999999999
endloop
endfacet
facet normal 0.945391770588143 -0.325936190233942 0.0
outer loop
vertex -11.6650649193515 -39.4557656547862 4.49999999999999
vertex -11.4540606458472 -38.8437387927593 5.99999999999999
vertex -11.6650649193515 -39.4557656547862 5.99999999999999
endloop
endfacet
facet normal 0.946828762283359 0.321737928931239 0.0
outer loop
vertex -11.6650649193515 -39.4557656547862 5.99999999999999
vertex -11.4513897056762 -40.0845812836018 4.49999999999999
vertex -11.6650649193515 -39.4557656547862 4.49999999999999
endloop
endfacet
facet normal 0.946828762283359 0.321737928931239 0.0
outer loop
vertex -11.4513897056762 -40.0845812836018 4.49999999999999
vertex -11.6650649193515 -39.4557656547862 5.99999999999999
vertex -11.4513897056762 -40.0845812836018 5.99999999999999
endloop
endfacet
facet normal 0.891827242390941 0.452376137444681 0.0
outer loop
vertex -11.4513897056762 -40.0845812836018 5.99999999999999
vertex -11.237714492001 -40.5058267048472 4.49999999999999
vertex -11.4513897056762 -40.0845812836018 4.49999999999999
endloop
endfacet
facet normal 0.891827242390941 0.452376137444681 0.0
outer loop
vertex -11.237714492001 -40.5058267048472 4.49999999999999
vertex -11.4513897056762 -40.0845812836018 5.99999999999999
vertex -11.237714492001 -40.5058267048472 5.99999999999999
endloop
endfacet
facet normal 0.688894869665921 0.724861268483821 0.0
outer loop
vertex -10.8378365921231 -40.8858633348839 5.99999999999999
vertex -11.237714492001 -40.5058267048472 4.49999999999999
vertex -11.237714492001 -40.5058267048472 5.99999999999999
endloop
endfacet
facet normal 0.688894869665921 0.724861268483821 0.0
outer loop
vertex -11.237714492001 -40.5058267048472 4.49999999999999
vertex -10.8378365921231 -40.8858633348839 5.99999999999999
vertex -10.8378365921231 -40.8858633348839 4.49999999999999
endloop
endfacet
facet normal 0.23847719553154 0.971148097465784 0.0
outer loop
vertex -10.3219635762501 -41.0125422115627 5.99999999999999
vertex -10.8378365921231 -40.8858633348839 4.49999999999999
vertex -10.8378365921231 -40.8858633348839 5.99999999999999
endloop
endfacet
facet normal 0.23847719553154 0.971148097465784 0.0
outer loop
vertex -10.8378365921231 -40.8858633348839 4.49999999999999
vertex -10.3219635762501 -41.0125422115627 5.99999999999999
vertex -10.3219635762501 -41.0125422115627 4.49999999999999
endloop
endfacet
facet normal -0.130620685544582 0.991432416510507 0.0
outer loop
vertex -9.61530911959566 -40.9194408684614 5.99999999999999
vertex -10.3219635762501 -41.0125422115627 4.49999999999999
vertex -10.3219635762501 -41.0125422115627 5.99999999999999
endloop
endfacet
facet normal -0.130620685544582 0.991432416510507 0.0
outer loop
vertex -10.3219635762501 -41.0125422115627 4.49999999999999
vertex -9.61530911959566 -40.9194408684614 5.99999999999999
vertex -9.61530911959566 -40.9194408684614 4.49999999999999
endloop
endfacet
facet normal -0.519496585545492 0.854472525951874 0.0
outer loop
vertex -9.15590741019395 -40.6401368391574 5.99999999999999
vertex -9.61530911959566 -40.9194408684614 4.49999999999999
vertex -9.61530911959566 -40.9194408684614 5.99999999999999
endloop
endfacet
facet normal -0.519496585545492 0.854472525951874 0.0
outer loop
vertex -9.61530911959566 -40.9194408684614 4.49999999999999
vertex -9.15590741019395 -40.6401368391574 5.99999999999999
vertex -9.15590741019395 -40.6401368391574 4.49999999999999
endloop
endfacet
facet normal -0.895086795914725 0.445891946304384 0.0
outer loop
vertex -9.15590741019395 -40.6401368391574 5.99999999999999
vertex -8.94986345414999 -40.2265226755432 4.49999999999999
vertex -9.15590741019395 -40.6401368391574 4.49999999999999
endloop
endfacet
facet normal -0.895086795914725 0.445891946304384 0.0
outer loop
vertex -8.94986345414999 -40.2265226755432 4.49999999999999
vertex -9.15590741019395 -40.6401368391574 5.99999999999999
vertex -8.94986345414999 -40.2265226755432 5.99999999999999
endloop
endfacet
facet normal -0.993637123124172 0.11262889304934 0.0
outer loop
vertex -8.94986345414999 -40.2265226755432 5.99999999999999
vertex -8.88118213546867 -39.6206008196213 4.49999999999999
vertex -8.94986345414999 -40.2265226755432 4.49999999999999
endloop
endfacet
facet normal -0.993637123124172 0.11262889304934 0.0
outer loop
vertex -8.88118213546867 -39.6206008196213 4.49999999999999
vertex -8.94986345414999 -40.2265226755432 5.99999999999999
vertex -8.88118213546867 -39.6206008196213 5.99999999999999
endloop
endfacet
facet normal -0.886942649843744 -0.461879568597874 0.0
outer loop
vertex -12.7456509999375 -39.5107107097312 5.99999999999999
vertex -13.166896421183 -38.7017974008179 4.49999999999999
vertex -12.7456509999375 -39.5107107097312 4.49999999999999
endloop
endfacet
facet normal -0.886942649843744 -0.461879568597874 0.0
outer loop
vertex -13.166896421183 -38.7017974008179 4.49999999999999
vertex -12.7456509999375 -39.5107107097312 5.99999999999999
vertex -13.166896421183 -38.7017974008179 5.99999999999999
endloop
endfacet
facet normal -0.803020061537842 -0.595951995355129 0.0
outer loop
vertex -13.166896421183 -38.7017974008179 5.99999999999999
vertex -13.5270917813783 -38.2164494154699 4.49999999999999
vertex -13.166896421183 -38.7017974008179 4.49999999999999
endloop
endfacet
facet normal -0.803020061537842 -0.595951995355129 0.0
outer loop
vertex -13.5270917813783 -38.2164494154699 4.49999999999999
vertex -13.166896421183 -38.7017974008179 5.99999999999999
vertex -13.5270917813783 -38.2164494154699 5.99999999999999
endloop
endfacet
facet normal -0.618390361344798 -0.785871084209014 0.0
outer loop
vertex -13.5270917813783 -38.2164494154699 4.49999999999999
vertex -13.8063958106823 -37.9966691956897 5.99999999999999
vertex -13.8063958106823 -37.9966691956897 4.49999999999999
endloop
endfacet
facet normal -0.618390361344798 -0.785871084209014 0.0
outer loop
vertex -13.8063958106823 -37.9966691956897 5.99999999999999
vertex -13.5270917813783 -38.2164494154699 4.49999999999999
vertex -13.5270917813783 -38.2164494154699 5.99999999999999
endloop
endfacet
facet normal -0.418527290747267 -0.908204220921568 0.0
outer loop
vertex -13.8063958106823 -37.9966691956897 4.49999999999999
vertex -14.1375923918789 -37.8440440430646 5.99999999999999
vertex -14.1375923918789 -37.8440440430646 4.49999999999999
endloop
endfacet
facet normal -0.418527290747267 -0.908204220921568 0.0
outer loop
vertex -14.1375923918789 -37.8440440430646 5.99999999999999
vertex -13.8063958106823 -37.9966691956897 4.49999999999999
vertex -13.8063958106823 -37.9966691956897 5.99999999999999
endloop
endfacet
facet normal -0.125856887584154 -0.992048408016277 0.0
outer loop
vertex -14.1375923918789 -37.8440440430646 4.49999999999999
vertex -14.9556632099497 -37.7402589392795 5.99999999999999
vertex -14.9556632099497 -37.7402589392795 4.49999999999999
endloop
endfacet
facet normal -0.125856887584154 -0.992048408016277 0.0
outer loop
vertex -14.9556632099497 -37.7402589392795 5.99999999999999
vertex -14.1375923918789 -37.8440440430646 4.49999999999999
vertex -14.1375923918789 -37.8440440430646 5.99999999999999
endloop
endfacet
facet normal 0.146739956636478 -0.989175103369633 0.0
outer loop
vertex -14.9556632099497 -37.7402589392795 4.49999999999999
vertex -15.3131876299742 -37.7932961798167 5.99999999999999
vertex -15.3131876299742 -37.7932961798167 4.49999999999999
endloop
endfacet
facet normal 0.146739956636478 -0.989175103369633 0.0
outer loop
vertex -15.3131876299742 -37.7932961798167 5.99999999999999
vertex -14.9556632099497 -37.7402589392795 4.49999999999999
vertex -14.9556632099497 -37.7402589392795 5.99999999999999
endloop
endfacet
facet normal 0.399098148644036 -0.916908211190686 0.0
outer loop
vertex -15.3131876299742 -37.7932961798167 4.49999999999999
vertex -15.6226351269217 -37.9279878770084 5.99999999999999
vertex -15.6226351269217 -37.9279878770084 4.49999999999999
endloop
endfacet
facet normal 0.399098148644036 -0.916908211190686 0.0
outer loop
vertex -15.6226351269217 -37.9279878770084 5.99999999999999
vertex -15.3131876299742 -37.7932961798167 4.49999999999999
vertex -15.3131876299742 -37.7932961798167 5.99999999999999
endloop
endfacet
facet normal 0.637636757658687 -0.770337176360142 0.0
outer loop
vertex -15.6226351269217 -37.9279878770084 4.49999999999999
vertex -15.8840057007922 -38.1443340308546 5.99999999999999
vertex -15.8840057007922 -38.1443340308546 4.49999999999999
endloop
endfacet
facet normal 0.637636757658687 -0.770337176360142 0.0
outer loop
vertex -15.8840057007922 -38.1443340308546 5.99999999999999
vertex -15.6226351269217 -37.9279878770084 4.49999999999999
vertex -15.6226351269217 -37.9279878770084 5.99999999999999
endloop
endfacet
facet normal 0.81317028371183 -0.582025849673383 0.0
outer loop
vertex -15.8840057007922 -38.1443340308546 5.99999999999999
vertex -16.0972993515859 -38.4423346413552 4.49999999999999
vertex -15.8840057007922 -38.1443340308546 4.49999999999999
endloop
endfacet
facet normal 0.81317028371183 -0.582025849673383 0.0
outer loop
vertex -16.0972993515859 -38.4423346413552 4.49999999999999
vertex -15.8840057007922 -38.1443340308546 5.99999999999999
vertex -16.0972993515859 -38.4423346413552 5.99999999999999
endloop
endfacet
facet normal 0.934316516534871 -0.356444451394806 0.0
outer loop
vertex -16.0972993515859 -38.4423346413552 5.99999999999999
vertex -16.2987645530511 -38.9704176694382 4.49999999999999
vertex -16.0972993515859 -38.4423346413552 4.49999999999999
endloop
endfacet
facet normal 0.934316516534871 -0.356444451394806 0.0
outer loop
vertex -16.2987645530511 -38.9704176694382 4.49999999999999
vertex -16.0972993515859 -38.4423346413552 5.99999999999999
vertex -16.2987645530511 -38.9704176694382 5.99999999999999
endloop
endfacet
facet normal 0.993695883818211 -0.112109279200003 0.0
outer loop
vertex -16.2987645530511 -38.9704176694382 5.99999999999999
vertex -16.3659196202062 -39.5656557646763 4.49999999999999
vertex -16.2987645530511 -38.9704176694382 4.49999999999999
endloop
endfacet
facet normal 0.993695883818211 -0.112109279200003 0.0
outer loop
vertex -16.3659196202062 -39.5656557646763 4.49999999999999
vertex -16.2987645530511 -38.9704176694382 5.99999999999999
vertex -16.3659196202062 -39.5656557646763 5.99999999999999
endloop
endfacet
facet normal 0.990504807765673 0.137478092047744 0.0
outer loop
vertex -16.3659196202062 -39.5656557646763 5.99999999999999
vertex -16.2392407435273 -40.4783541773747 4.49999999999999
vertex -16.3659196202062 -39.5656557646763 4.49999999999999
endloop
endfacet
facet normal 0.990504807765673 0.137478092047744 0.0
outer loop
vertex -16.2392407435273 -40.4783541773747 4.49999999999999
vertex -16.3659196202062 -39.5656557646763 5.99999999999999
vertex -16.2392407435273 -40.4783541773747 5.99999999999999
endloop
endfacet
facet normal 0.904093967080587 0.427333708813717 0.0
outer loop
vertex -16.2392407435273 -40.4783541773747 5.99999999999999
vertex -16.0808921476787 -40.8133663873869 4.49999999999999
vertex -16.2392407435273 -40.4783541773747 4.49999999999999
endloop
endfacet
facet normal 0.904093967080587 0.427333708813717 0.0
outer loop
vertex -16.0808921476787 -40.8133663873869 4.49999999999999
vertex -16.2392407435273 -40.4783541773747 5.99999999999999
vertex -16.0808921476787 -40.8133663873869 5.99999999999999
endloop
endfacet
facet normal 0.753557131545571 0.65738242256453 0.0
outer loop
vertex -16.0808921476787 -40.8133663873869 5.99999999999999
vertex -15.8592041134907 -41.0674872665078 4.49999999999999
vertex -16.0808921476787 -40.8133663873869 4.49999999999999
endloop
endfacet
facet normal 0.753557131545571 0.65738242256453 0.0
outer loop
vertex -15.8592041134907 -41.0674872665078 4.49999999999999
vertex -16.0808921476787 -40.8133663873869 5.99999999999999
vertex -15.8592041134907 -41.0674872665078 5.99999999999999
endloop
endfacet
facet normal 0.451508508193615 0.892266813811192 0.0
outer loop
vertex -15.3524886067751 -41.3238975229181 5.99999999999999
vertex -15.8592041134907 -41.0674872665078 4.49999999999999
vertex -15.8592041134907 -41.0674872665078 5.99999999999999
endloop
endfacet
facet normal 0.451508508193615 0.892266813811192 0.0
outer loop
vertex -15.8592041134907 -41.0674872665078 4.49999999999999
vertex -15.3524886067751 -41.3238975229181 5.99999999999999
vertex -15.3524886067751 -41.3238975229181 4.49999999999999
endloop
endfacet
facet normal 0.11881057388419 0.992916938889306 0.0
outer loop
vertex -14.6382028924894 -41.4093676083881 5.99999999999999
vertex -15.3524886067751 -41.3238975229181 4.49999999999999
vertex -15.3524886067751 -41.3238975229181 5.99999999999999
endloop
endfacet
facet normal 0.11881057388419 0.992916938889306 0.0
outer loop
vertex -15.3524886067751 -41.3238975229181 4.49999999999999
vertex -14.6382028924894 -41.4093676083881 5.99999999999999
vertex -14.6382028924894 -41.4093676083881 4.49999999999999
endloop
endfacet
facet normal -0.101775679173421 0.994807373881391 0.0
outer loop
vertex -14.2577846995712 -41.3704481944687 5.99999999999999
vertex -14.6382028924894 -41.4093676083881 4.49999999999999
vertex -14.6382028924894 -41.4093676083881 5.99999999999999
endloop
endfacet
facet normal -0.101775679173421 0.994807373881391 0.0
outer loop
vertex -14.6382028924894 -41.4093676083881 4.49999999999999
vertex -14.2577846995712 -41.3704481944687 5.99999999999999
vertex -14.2577846995712 -41.3704481944687 4.49999999999999
endloop
endfacet
facet normal -0.323513325147504 0.946223614402011 0.0
outer loop
vertex -13.9162859205725 -41.2536899527105 5.99999999999999
vertex -14.2577846995712 -41.3704481944687 4.49999999999999
vertex -14.2577846995712 -41.3704481944687 5.99999999999999
endloop
endfacet
facet normal -0.323513325147504 0.946223614402011 0.0
outer loop
vertex -14.2577846995712 -41.3704481944687 4.49999999999999
vertex -13.9162859205725 -41.2536899527105 5.99999999999999
vertex -13.9162859205725 -41.2536899527105 4.49999999999999
endloop
endfacet
facet normal -0.540918398113575 0.841075077851106 0.0
outer loop
vertex -13.6137065554931 -41.0590928831134 5.99999999999999
vertex -13.9162859205725 -41.2536899527105 4.49999999999999
vertex -13.9162859205725 -41.2536899527105 5.99999999999999
endloop
endfacet
facet normal -0.540918398113575 0.841075077851106 0.0
outer loop
vertex -13.9162859205725 -41.2536899527105 4.49999999999999
vertex -13.6137065554931 -41.0590928831134 5.99999999999999
vertex -13.6137065554931 -41.0590928831134 4.49999999999999
endloop
endfacet
facet normal -0.718585917666888 0.695438192027758 0.0
outer loop
vertex -13.6137065554931 -41.0590928831134 5.99999999999999
vertex -13.3500466043331 -40.7866569856775 4.49999999999999
vertex -13.6137065554931 -41.0590928831134 4.49999999999999
endloop
endfacet
facet normal -0.718585917666888 0.695438192027758 0.0
outer loop
vertex -13.3500466043331 -40.7866569856775 4.49999999999999
vertex -13.6137065554931 -41.0590928831134 5.99999999999999
vertex -13.3500466043331 -40.7866569856775 5.99999999999999
endloop
endfacet
facet normal -0.855297713203425 0.518136875534827 0.0
outer loop
vertex -13.3500466043331 -40.7866569856775 5.99999999999999
vertex -13.0310600353466 -40.2601002091207 4.49999999999999
vertex -13.3500466043331 -40.7866569856775 4.49999999999999
endloop
endfacet
facet normal -0.855297713203425 0.518136875534827 0.0
outer loop
vertex -13.0310600353466 -40.2601002091207 4.49999999999999
vertex -13.3500466043331 -40.7866569856775 5.99999999999999
vertex -13.0310600353466 -40.2601002091207 5.99999999999999
endloop
endfacet
facet normal -0.934517882786413 0.355916179391159 0.0
outer loop
vertex -13.0310600353466 -40.2601002091207 5.99999999999999
vertex -12.7456509999375 -39.5107107097312 4.49999999999999
vertex -13.0310600353466 -40.2601002091207 4.49999999999999
endloop
endfacet
facet normal -0.934517882786413 0.355916179391159 0.0
outer loop
vertex -12.7456509999375 -39.5107107097312 4.49999999999999
vertex -13.0310600353466 -40.2601002091207 5.99999999999999
vertex -12.7456509999375 -39.5107107097312 5.99999999999999
endloop
endfacet
facet normal 0.0 0.0 -1.0
outer loop
vertex -3.28409233225949 -29.0701224443889 0.0
vertex -21.8840923322595 -49.9701224443888 0.0
vertex -21.8840923322595 -29.0701224443889 0.0
endloop
endfacet
facet normal 0.0 0.0 -1.0
outer loop
vertex -21.8840923322595 -49.9701224443888 0.0
vertex -3.28409233225949 -29.0701224443889 0.0
vertex -3.38409233225949 -49.9701224443888 0.0
endloop
endfacet
facet normal 0.0 0.0 -1.0
outer loop
vertex -3.38409233225949 -49.9701224443888 0.0
vertex -3.28409233225949 -29.0701224443889 0.0
vertex -3.28409233225949 -49.9701224443888 0.0
endloop
endfacet
facet normal 0.0 0.0 1.0
outer loop
vertex -3.38409233225949 -49.9701224443888 4.5
vertex -21.8840923322595 -29.0701224443889 4.5
vertex -21.8840923322595 -49.9701224443888 4.5
endloop
endfacet
facet normal 0.0 0.0 1.0
outer loop
vertex -21.8840923322595 -29.0701224443889 4.5
vertex -3.38409233225949 -49.9701224443888 4.5
vertex -3.28409233225949 -29.0701224443889 4.5
endloop
endfacet
facet normal 0.0 0.0 1.0
outer loop
vertex -3.28409233225949 -29.0701224443889 4.5
vertex -3.38409233225949 -49.9701224443888 4.5
vertex -3.28409233225949 -49.9701224443888 4.5
endloop
endfacet
facet normal -1.0 0.0 0.0
outer loop
vertex -21.8840923322595 -29.0701224443889 4.5
vertex -21.8840923322595 -49.9701224443888 0.0
vertex -21.8840923322595 -49.9701224443888 4.5
endloop
endfacet
facet normal -1.0 0.0 0.0
outer loop
vertex -21.8840923322595 -49.9701224443888 0.0
vertex -21.8840923322595 -29.0701224443889 4.5
vertex -21.8840923322595 -29.0701224443889 0.0
endloop
endfacet
facet normal 0.0 1.0 0.0
outer loop
vertex -21.8840923322595 -29.0701224443889 4.5
vertex -3.28409233225949 -29.0701224443889 0.0
vertex -21.8840923322595 -29.0701224443889 0.0
endloop
endfacet
facet normal 0.0 1.0 0.0
outer loop
vertex -3.28409233225949 -29.0701224443889 0.0
vertex -21.8840923322595 -29.0701224443889 4.5
vertex -3.28409233225949 -29.0701224443889 4.5
endloop
endfacet
facet normal 1.0 0.0 0.0
outer loop
vertex -3.28409233225949 -29.0701224443889 0.0
vertex -3.28409233225949 -49.9701224443888 4.5
vertex -3.28409233225949 -49.9701224443888 0.0
endloop
endfacet
facet normal 1.0 0.0 0.0
outer loop
vertex -3.28409233225949 -49.9701224443888 4.5
vertex -3.28409233225949 -29.0701224443889 0.0
vertex -3.28409233225949 -29.0701224443889 4.5
endloop
endfacet
facet normal -0.0 -1.0 -0.0
outer loop
vertex -3.28409233225949 -49.9701224443888 4.5
vertex -3.38409233225949 -49.9701224443888 0.0
vertex -3.28409233225949 -49.9701224443888 0.0
endloop
endfacet
facet normal -0.0 -1.0 -0.0
outer loop
vertex -3.38409233225949 -49.9701224443888 0.0
vertex -3.28409233225949 -49.9701224443888 4.5
vertex -3.38409233225949 -49.9701224443888 4.5
endloop
endfacet
facet normal -0.0 -1.0 -0.0
outer loop
vertex -3.38409233225949 -49.9701224443888 4.5
vertex -21.8840923322595 -49.9701224443888 0.0
vertex -3.38409233225949 -49.9701224443888 0.0
endloop
endfacet
facet normal -0.0 -1.0 -0.0
outer loop
vertex -21.8840923322595 -49.9701224443888 0.0
vertex -3.38409233225949 -49.9701224443888 4.5
vertex -21.8840923322595 -49.9701224443888 4.5
endloop
endfacet
endsolid 8_cutro_test
