solid stair_stainedglass
facet normal 0.0 0.0 -1.0
outer loop
vertex 40.1272429209974 24.8 0.0
vertex 0.0 0.0 0.0
vertex 0.0 24.8 0.0
endloop
endfacet
facet normal 0.0 0.0 -1.0
outer loop
vertex 0.0 0.0 0.0
vertex 40.1272429209974 24.8 0.0
vertex 40.1067047799578 0.0 0.0
endloop
endfacet
facet normal 0.0 0.0 1.0
outer loop
vertex 40.1272429209974 0.0 19.7
vertex 0.0 24.8 19.7
vertex 0.0 0.0 19.7
endloop
endfacet
facet normal 0.0 0.0 1.0
outer loop
vertex 0.0 24.8 19.7
vertex 40.1272429209974 0.0 19.7
vertex 40.1272429209974 24.8 19.7
endloop
endfacet
facet normal -0.0 1.0 0.0
outer loop
vertex 0.0 24.8 19.7
vertex 40.1272429209974 24.8 0.0
vertex 0.0 24.8 0.0
endloop
endfacet
facet normal -0.0 1.0 0.0
outer loop
vertex 40.1272429209974 24.8 0.0
vertex 0.0 24.8 19.7
vertex 40.1272429209974 24.8 19.7
endloop
endfacet
facet normal 0.99999970820331 -0.000477122826520353 -0.000596613026747351
outer loop
vertex 40.1272429209974 24.8 0.0
vertex 40.1067047799578 0.0 0.5
vertex 40.1067047799578 0.0 0.0
endloop
endfacet
facet normal 0.99999970820331 -0.000477122826520353 -0.000596613026747351
outer loop
vertex 40.1067047799578 0.0 0.5
vertex 40.1272429209974 24.8 0.0
vertex 40.1272429209974 0.0 19.7
endloop
endfacet
facet normal 0.99999970820331 -0.000477122826520353 -0.000596613026747351
outer loop
vertex 40.1272429209974 0.0 19.7
vertex 40.1272429209974 24.8 0.0
vertex 40.1272429209974 24.8 19.7
endloop
endfacet
facet normal 0.0 -1.0 0.0
outer loop
vertex 40.1272429209974 0.0 19.7
vertex 0.0 0.0 0.5
vertex 40.1067047799578 0.0 0.5
endloop
endfacet
facet normal 0.0 -1.0 0.0
outer loop
vertex 0.0 0.0 0.5
vertex 40.1272429209974 0.0 19.7
vertex 0.0 0.0 19.7
endloop
endfacet
facet normal -1.0 0.0 0.0
outer loop
vertex 0.0 24.8 19.7
vertex 0.0 0.0 0.5
vertex 0.0 0.0 19.7
endloop
endfacet
facet normal -1.0 0.0 0.0
outer loop
vertex 0.0 0.0 0.5
vertex 0.0 24.8 19.7
vertex 0.0 0.0 0.0
endloop
endfacet
facet normal -1.0 0.0 0.0
outer loop
vertex 0.0 0.0 0.0
vertex 0.0 24.8 19.7
vertex 0.0 24.8 0.0
endloop
endfacet
facet normal 0.0 0.0 -1.0
outer loop
vertex 40.1067047799578 0.0 0.0
vertex 0.0 -34.3 0.0
vertex 0.0 0.0 0.0
endloop
endfacet
facet normal 0.0 0.0 -1.0
outer loop
vertex 0.0 -34.3 0.0
vertex 40.1067047799578 0.0 0.0
vertex 40.1067047799578 -34.3 0.0
endloop
endfacet
facet normal -0.0 -0.0 1.0
outer loop
vertex 40.1067047799578 -34.3 0.5
vertex 0.0 0.0 0.5
vertex 0.0 -34.3 0.5
endloop
endfacet
facet normal -0.0 -0.0 1.0
outer loop
vertex 0.0 0.0 0.5
vertex 40.1067047799578 -34.3 0.5
vertex 40.1067047799578 0.0 0.5
endloop
endfacet
facet normal -1.0 0.0 0.0
outer loop
vertex 0.0 0.0 0.5
vertex 0.0 -34.3 0.0
vertex 0.0 -34.3 0.5
endloop
endfacet
facet normal -1.0 0.0 0.0
outer loop
vertex 0.0 -34.3 0.0
vertex 0.0 0.0 0.5
vertex 0.0 0.0 0.0
endloop
endfacet
facet normal 0.0 -1.0 0.0
outer loop
vertex 40.1067047799578 0.0 0.5
vertex 0.0 0.0 0.0
vertex 40.1067047799578 0.0 0.0
endloop
endfacet
facet normal 0.0 -1.0 0.0
outer loop
vertex 0.0 0.0 0.0
vertex 40.1067047799578 0.0 0.5
vertex 0.0 0.0 0.5
endloop
endfacet
facet normal 1.0 -0.0 -0.0
outer loop
vertex 40.1067047799578 0.0 0.0
vertex 40.1067047799578 -34.3 0.5
vertex 40.1067047799578 -34.3 0.0
endloop
endfacet
facet normal 1.0 -0.0 -0.0
outer loop
vertex 40.1067047799578 -34.3 0.5
vertex 40.1067047799578 0.0 0.0
vertex 40.1067047799578 0.0 0.5
endloop
endfacet
facet normal -0.0 -1.0 -0.0
outer loop
vertex 40.1067047799578 -34.3 0.5
vertex 0.0 -34.3 0.0
vertex 40.1067047799578 -34.3 0.0
endloop
endfacet
facet normal -0.0 -1.0 -0.0
outer loop
vertex 0.0 -34.3 0.0
vertex 40.1067047799578 -34.3 0.5
vertex 0.0 -34.3 0.5
endloop
endfacet
endsolid stair_stainedglass
